<svg width="22" height="22" viewBox="0 0 22 22" fill="none" xmlns="http://www.w3.org/2000/svg">
<path d="M17.905 9.89209C18.2608 9.89209 18.6021 9.75075 18.8537 9.49916C19.1052 9.24757 19.2466 8.90634 19.2466 8.55054V4.52588C19.2466 4.17008 19.1052 3.82885 18.8537 3.57726C18.6021 3.32567 18.2608 3.18433 17.905 3.18433H13.8804C13.5246 3.18433 13.1833 3.32567 12.9318 3.57726C12.6802 3.82885 12.5388 4.17008 12.5388 4.52588V8.55054C12.5388 8.90634 12.6802 9.24757 12.9318 9.49916C13.1833 9.75075 13.5246 9.89209 13.8804 9.89209H15.2219V12.6423C14.5774 12.7737 13.9857 13.0918 13.5206 13.557C13.0554 14.0221 12.7374 14.6138 12.6059 15.2583H9.85572V13.9167C9.85572 13.5609 9.71438 13.2197 9.46279 12.9681C9.2112 12.7165 8.86997 12.5752 8.51417 12.5752H7.17262V9.82501C7.98697 9.65878 8.71059 9.1961 9.20319 8.52666C9.69579 7.85723 9.92227 7.02873 9.83874 6.2018C9.7552 5.37486 9.36759 4.6084 8.75105 4.05101C8.13452 3.49362 7.33298 3.18501 6.50184 3.18501C5.6707 3.18501 4.86916 3.49362 4.25262 4.05101C3.63609 4.6084 3.24848 5.37486 3.16494 6.2018C3.0814 7.02873 3.30789 7.85723 3.80049 8.52666C4.29309 9.1961 5.01671 9.65878 5.83106 9.82501V12.5752H4.48951C4.13371 12.5752 3.79248 12.7165 3.54089 12.9681C3.2893 13.2197 3.14796 13.5609 3.14796 13.9167V17.9414C3.14796 18.2972 3.2893 18.6384 3.54089 18.89C3.79248 19.1416 4.13371 19.283 4.48951 19.283H8.51417C8.86997 19.283 9.2112 19.1416 9.46279 18.89C9.71438 18.6384 9.85572 18.2972 9.85572 17.9414V16.5999H12.6059C12.7272 17.1934 13.0071 17.7431 13.4157 18.1904C13.8243 18.6376 14.3465 18.9659 14.9267 19.1402C15.507 19.3146 16.1236 19.3285 16.7111 19.1805C17.2986 19.0325 17.835 18.7282 18.2634 18.2998C18.6918 17.8714 18.9962 17.3349 19.1441 16.7474C19.2921 16.1599 19.2782 15.5433 19.1039 14.9631C18.9295 14.3829 18.6013 13.8607 18.154 13.4521C17.7067 13.0434 17.1571 12.7636 16.5635 12.6423V9.89209H17.905ZM4.48951 6.53821C4.48951 6.14021 4.60753 5.75114 4.82865 5.42022C5.04977 5.08929 5.36405 4.83137 5.73175 4.67906C6.09946 4.52675 6.50407 4.4869 6.89442 4.56455C7.28478 4.64219 7.64334 4.83385 7.92477 5.11528C8.2062 5.39671 8.39786 5.75527 8.4755 6.14562C8.55315 6.53598 8.5133 6.94059 8.36099 7.30829C8.20868 7.676 7.95075 7.99028 7.61983 8.2114C7.2889 8.43252 6.89984 8.55054 6.50184 8.55054C5.96814 8.55054 5.45629 8.33852 5.07891 7.96114C4.70152 7.58376 4.48951 7.07191 4.48951 6.53821ZM8.51417 17.9414H4.48951V13.9167H8.51417V17.9414ZM17.905 15.9291C17.905 16.3271 17.787 16.7161 17.5659 17.0471C17.3448 17.378 17.0305 17.6359 16.6628 17.7882C16.2951 17.9405 15.8905 17.9804 15.5001 17.9027C15.1098 17.8251 14.7512 17.6334 14.4698 17.352C14.1883 17.0706 13.9967 16.712 13.919 16.3217C13.8414 15.9313 13.8812 15.5267 14.0336 15.159C14.1859 14.7913 14.4438 14.477 14.7747 14.2559C15.1056 14.0348 15.4947 13.9167 15.8927 13.9167C16.4264 13.9167 16.9383 14.1288 17.3156 14.5061C17.693 14.8835 17.905 15.3954 17.905 15.9291ZM13.8804 4.52588H17.905V8.55054H13.8804V4.52588Z" fill="#2AAA0B"/>
</svg>
