<svg width="21" height="22" viewBox="0 0 21 22" fill="none" xmlns="http://www.w3.org/2000/svg">
<path d="M10.5 13.625C9.98083 13.625 9.47331 13.471 9.04163 13.1826C8.60995 12.8942 8.2735 12.4842 8.07482 12.0045C7.87614 11.5249 7.82415 10.9971 7.92544 10.4879C8.02673 9.97869 8.27673 9.51096 8.64385 9.14385C9.01096 8.77673 9.47869 8.52673 9.98789 8.42544C10.4971 8.32415 11.0249 8.37614 11.5045 8.57482C11.9842 8.7735 12.3942 9.10995 12.6826 9.54163C12.971 9.97331 13.125 10.4808 13.125 11C13.1241 11.6959 12.8473 12.3631 12.3552 12.8552C11.8631 13.3473 11.1959 13.6241 10.5 13.625ZM10.5 9.6875C10.2404 9.6875 9.98666 9.76448 9.77082 9.9087C9.55498 10.0529 9.38675 10.2579 9.28741 10.4977C9.18807 10.7376 9.16208 11.0015 9.21272 11.2561C9.26336 11.5107 9.38837 11.7445 9.57192 11.9281C9.75548 12.1116 9.98935 12.2366 10.2439 12.2873C10.4985 12.3379 10.7624 12.3119 11.0023 12.2126C11.2421 12.1133 11.4471 11.945 11.5913 11.7292C11.7355 11.5133 11.8125 11.2596 11.8125 11C11.8122 10.652 11.6738 10.3184 11.4277 10.0723C11.1816 9.82624 10.848 9.68785 10.5 9.6875ZM3.28125 13.625C2.76208 13.625 2.25456 13.471 1.82288 13.1826C1.3912 12.8942 1.05475 12.4842 0.856067 12.0045C0.657387 11.5249 0.605404 10.9971 0.70669 10.4879C0.807976 9.97869 1.05798 9.51096 1.4251 9.14385C1.79221 8.77673 2.25994 8.52673 2.76914 8.42544C3.27834 8.32415 3.80614 8.37614 4.2858 8.57482C4.76545 8.7735 5.17542 9.10995 5.46386 9.54163C5.7523 9.97331 5.90625 10.4808 5.90625 11C5.90538 11.6959 5.62854 12.3631 5.13645 12.8552C4.64435 13.3473 3.97718 13.6241 3.28125 13.625ZM3.28125 9.6875C3.02166 9.6875 2.7679 9.76448 2.55207 9.9087C2.33623 10.0529 2.168 10.2579 2.06866 10.4977C1.96932 10.7376 1.94333 11.0015 1.99397 11.2561C2.04461 11.5107 2.16962 11.7445 2.35317 11.9281C2.53673 12.1116 2.7706 12.2366 3.0252 12.2873C3.2798 12.3379 3.5437 12.3119 3.78352 12.2126C4.02335 12.1133 4.22834 11.945 4.37256 11.7292C4.51677 11.5133 4.59375 11.2596 4.59375 11C4.5934 10.652 4.45501 10.3184 4.20895 10.0723C3.96288 9.82624 3.62924 9.68785 3.28125 9.6875ZM6.5625 20.8438C6.04333 20.8438 5.53581 20.6898 5.10413 20.4014C4.67245 20.1129 4.336 19.703 4.13732 19.2233C3.93864 18.7436 3.88665 18.2158 3.98794 17.7066C4.08923 17.1974 4.33923 16.7297 4.70635 16.3626C5.07346 15.9955 5.54119 15.7455 6.05039 15.6442C6.55959 15.5429 7.08739 15.5949 7.56705 15.7936C8.0467 15.9922 8.45667 16.3287 8.74511 16.7604C9.03355 17.1921 9.1875 17.6996 9.1875 18.2188C9.18663 18.9147 8.90979 19.5819 8.4177 20.0739C7.9256 20.566 7.25843 20.8429 6.5625 20.8438ZM6.5625 16.9063C6.30291 16.9063 6.04915 16.9832 5.83332 17.1274C5.61748 17.2717 5.44925 17.4767 5.34991 17.7165C5.25057 17.9563 5.22458 18.2202 5.27522 18.4748C5.32586 18.7294 5.45087 18.9633 5.63442 19.1468C5.81798 19.3304 6.05185 19.4554 6.30645 19.506C6.56105 19.5567 6.82494 19.5307 7.06477 19.4313C7.3046 19.332 7.50959 19.1638 7.6538 18.9479C7.79802 18.7321 7.875 18.4783 7.875 18.2188C7.87465 17.8708 7.73626 17.5371 7.49019 17.2911C7.24413 17.045 6.91049 16.9066 6.5625 16.9063ZM14.4375 20.8438C13.9183 20.8438 13.4108 20.6898 12.9791 20.4014C12.5475 20.1129 12.211 19.703 12.0123 19.2233C11.8136 18.7436 11.7617 18.2158 11.8629 17.7066C11.9642 17.1974 12.2142 16.7297 12.5813 16.3626C12.9485 15.9955 13.4162 15.7455 13.9254 15.6442C14.4346 15.5429 14.9624 15.5949 15.442 15.7936C15.9217 15.9922 16.3317 16.3287 16.6201 16.7604C16.9085 17.1921 17.0625 17.6996 17.0625 18.2188C17.0616 18.9147 16.7848 19.5819 16.2927 20.0739C15.8006 20.566 15.1334 20.8429 14.4375 20.8438ZM14.4375 16.9063C14.1779 16.9063 13.9242 16.9832 13.7083 17.1274C13.4925 17.2717 13.3242 17.4767 13.2249 17.7165C13.1256 17.9563 13.0996 18.2202 13.1502 18.4748C13.2009 18.7294 13.3259 18.9633 13.5094 19.1468C13.693 19.3304 13.9268 19.4554 14.1814 19.506C14.436 19.5567 14.6999 19.5307 14.9398 19.4313C15.1796 19.332 15.3846 19.1638 15.5288 18.9479C15.673 18.7321 15.75 18.4783 15.75 18.2188C15.7497 17.8708 15.6113 17.5371 15.3652 17.2911C15.1191 17.045 14.7855 16.9066 14.4375 16.9063ZM17.7188 13.625C17.1996 13.625 16.6921 13.471 16.2604 13.1826C15.8287 12.8942 15.4922 12.4842 15.2936 12.0045C15.0949 11.5249 15.0429 10.9971 15.1442 10.4879C15.2455 9.97869 15.4955 9.51096 15.8626 9.14385C16.2297 8.77673 16.6974 8.52673 17.2066 8.42544C17.7158 8.32415 18.2436 8.37614 18.7233 8.57482C19.203 8.7735 19.6129 9.10995 19.9014 9.54163C20.1898 9.97331 20.3438 10.4808 20.3438 11C20.3429 11.6959 20.066 12.3631 19.5739 12.8552C19.0819 13.3473 18.4147 13.6241 17.7188 13.625ZM17.7188 9.6875C17.4592 9.6875 17.2054 9.76448 16.9896 9.9087C16.7737 10.0529 16.6055 10.2579 16.5062 10.4977C16.4068 10.7376 16.3808 11.0015 16.4315 11.2561C16.4821 11.5107 16.6071 11.7445 16.7907 11.9281C16.9742 12.1116 17.2081 12.2366 17.4627 12.2873C17.7173 12.3379 17.9812 12.3119 18.221 12.2126C18.4609 12.1133 18.6658 11.945 18.8101 11.7292C18.9543 11.5133 19.0313 11.2596 19.0313 11C19.0309 10.652 18.8925 10.3184 18.6464 10.0723C18.4004 9.82624 18.0667 9.68785 17.7188 9.6875ZM14.4375 6.40625C13.9183 6.40625 13.4108 6.2523 12.9791 5.96386C12.5475 5.67542 12.211 5.26545 12.0123 4.7858C11.8136 4.30614 11.7617 3.77834 11.8629 3.26914C11.9642 2.75994 12.2142 2.29221 12.5813 1.9251C12.9485 1.55798 13.4162 1.30798 13.9254 1.20669C14.4346 1.1054 14.9624 1.15739 15.442 1.35607C15.9217 1.55475 16.3317 1.8912 16.6201 2.32288C16.9085 2.75456 17.0625 3.26208 17.0625 3.78125C17.0616 4.47718 16.7848 5.14435 16.2927 5.63645C15.8006 6.12854 15.1334 6.40538 14.4375 6.40625ZM14.4375 2.46875C14.1779 2.46875 13.9242 2.54573 13.7083 2.68995C13.4925 2.83417 13.3242 3.03915 13.2249 3.27898C13.1256 3.51881 13.0996 3.78271 13.1502 4.03731C13.2009 4.29191 13.3259 4.52577 13.5094 4.70933C13.693 4.89289 13.9268 5.01789 14.1814 5.06853C14.436 5.11918 14.6999 5.09318 14.9398 4.99384C15.1796 4.8945 15.3846 4.72628 15.5288 4.51044C15.673 4.2946 15.75 4.04084 15.75 3.78125C15.7497 3.43326 15.6113 3.09962 15.3652 2.85356C15.1191 2.60749 14.7855 2.4691 14.4375 2.46875ZM6.5625 6.40625C6.04333 6.40625 5.53581 6.2523 5.10413 5.96386C4.67245 5.67542 4.336 5.26545 4.13732 4.7858C3.93864 4.30614 3.88665 3.77834 3.98794 3.26914C4.08923 2.75994 4.33923 2.29221 4.70635 1.9251C5.07346 1.55798 5.54119 1.30798 6.05039 1.20669C6.55959 1.1054 7.08739 1.15739 7.56705 1.35607C8.0467 1.55475 8.45667 1.8912 8.74511 2.32288C9.03355 2.75456 9.1875 3.26208 9.1875 3.78125C9.18663 4.47718 8.90979 5.14435 8.4177 5.63645C7.9256 6.12854 7.25843 6.40538 6.5625 6.40625ZM6.5625 2.46875C6.30291 2.46875 6.04915 2.54573 5.83332 2.68995C5.61748 2.83417 5.44925 3.03915 5.34991 3.27898C5.25057 3.51881 5.22458 3.78271 5.27522 4.03731C5.32586 4.29191 5.45087 4.52577 5.63442 4.70933C5.81798 4.89289 6.05185 5.01789 6.30645 5.06853C6.56105 5.11918 6.82494 5.09318 7.06477 4.99384C7.3046 4.8945 7.50959 4.72628 7.6538 4.51044C7.79802 4.2946 7.875 4.04084 7.875 3.78125C7.87465 3.43326 7.73626 3.09962 7.49019 2.85356C7.24413 2.60749 6.91049 2.4691 6.5625 2.46875Z" fill="#404040"/>
</svg>
