<svg width="26" height="24" viewBox="0 0 26 24" fill="none" xmlns="http://www.w3.org/2000/svg">
<path d="M12.9369 9.87646C11.7658 9.87646 10.8155 10.7858 10.8155 11.9076C10.8155 13.0293 11.7658 13.9387 12.9369 13.9387C14.108 13.9387 15.0565 13.0293 15.0565 11.9076C15.0565 10.7858 14.108 9.87646 12.9369 9.87646ZM6.18984 9.87646C5.01874 9.87646 4.06836 10.7858 4.06836 11.9076C4.06836 13.0293 5.01874 13.9387 6.18984 13.9387C7.36094 13.9387 8.30939 13.0284 8.30939 11.9076C8.30939 10.7868 7.36094 9.87646 6.18984 9.87646ZM19.684 9.87646C18.5129 9.87646 17.5626 10.7858 17.5626 11.9076C17.5626 13.0293 18.5129 13.9387 19.684 13.9387C20.8551 13.9387 21.8036 13.0293 21.8036 11.9076C21.8036 10.7858 20.8551 9.87646 19.684 9.87646Z" fill="black"/>
<mask id="mask0_2726_5622" style="mask-type:alpha" maskUnits="userSpaceOnUse" x="4" y="9" width="18" height="5">
<path d="M12.9369 9.87646C11.7658 9.87646 10.8155 10.7858 10.8155 11.9076C10.8155 13.0293 11.7658 13.9387 12.9369 13.9387C14.108 13.9387 15.0565 13.0293 15.0565 11.9076C15.0565 10.7858 14.108 9.87646 12.9369 9.87646ZM6.18984 9.87646C5.01874 9.87646 4.06836 10.7858 4.06836 11.9076C4.06836 13.0293 5.01874 13.9387 6.18984 13.9387C7.36094 13.9387 8.30939 13.0284 8.30939 11.9076C8.30939 10.7868 7.36094 9.87646 6.18984 9.87646ZM19.684 9.87646C18.5129 9.87646 17.5626 10.7858 17.5626 11.9076C17.5626 13.0293 18.5129 13.9387 19.684 13.9387C20.8551 13.9387 21.8036 13.0293 21.8036 11.9076C21.8036 10.7858 20.8551 9.87646 19.684 9.87646Z" fill="#737781"/>
</mask>
<g mask="url(#mask0_2726_5622)">
<rect x="0.743164" y="0.321045" width="24.3859" height="23.3578" fill="black"/>
</g>
</svg>
