<svg width="57" height="57" viewBox="0 0 57 57" fill="none" xmlns="http://www.w3.org/2000/svg">
<rect x="0.5" y="0.5" width="56" height="56" rx="28" fill="#EAFCEC"/>
<path d="M28.5 18.123C22.7635 18.123 18.123 22.7635 18.123 28.5C18.123 34.2365 22.7635 38.877 28.5 38.877C34.2365 38.877 38.877 34.2365 38.877 28.5C38.877 22.7635 34.2365 18.123 28.5 18.123ZM28.5 19.4707C33.4818 19.4707 37.5293 23.5182 37.5293 28.5C37.5293 33.4818 33.4818 37.5293 28.5 37.5293C23.5182 37.5293 19.4707 33.4818 19.4707 28.5C19.4707 23.5182 23.5182 19.4707 28.5 19.4707ZM20.6171 26.1596C20.4055 27.0221 20.2793 27.8217 20.2793 28.5854C26.7795 29.9465 25.7373 31.3885 26.9277 36.5725C27.4398 36.6668 27.9609 36.7207 28.5 36.7207C29.0391 36.7207 29.5602 36.6668 30.0723 36.5725C31.2627 31.3885 30.2205 29.9465 36.7207 28.5854C36.6937 27.7363 36.5859 26.8604 36.3838 26.1596C32.5744 25.2072 30.526 24.7266 28.5 24.7266C26.474 24.7266 24.4256 25.2072 20.6171 26.1596ZM28.5 25.2207C30.3059 25.2207 31.7793 26.6941 31.7793 28.5C31.7793 30.3059 30.3059 31.7793 28.5 31.7793C26.6941 31.7793 25.2207 30.3059 25.2207 28.5C25.2207 26.6941 26.6941 25.2207 28.5 25.2207ZM28.5 26.0293C27.1299 26.0293 26.0293 27.1299 26.0293 28.5C26.0293 29.8701 27.1299 30.9707 28.5 30.9707C29.8701 30.9707 30.9707 29.8701 30.9707 28.5C30.9707 27.1299 29.8701 26.0293 28.5 26.0293Z" fill="#2AAA0B"/>
<rect x="0.5" y="0.5" width="56" height="56" rx="28" stroke="#2AAA0B"/>
</svg>
