<svg width="49" height="49" viewBox="0 0 49 49" fill="none" xmlns="http://www.w3.org/2000/svg">
<circle cx="24.2964" cy="24.812" r="24" fill="#2AAA0B"/>
<path fill-rule="evenodd" clip-rule="evenodd" d="M20.8456 19.0187C20.8456 18.8334 22.756 17.5381 24.6528 17.5381C26.5497 17.5381 28.4601 18.8338 28.4601 19.0187C28.4601 19.6786 28.3898 20.0695 28.3306 20.2822C28.2913 20.4218 28.1606 20.4993 28.0155 20.4993H21.2902C21.1451 20.4993 21.0144 20.4218 20.9751 20.2822C20.9158 20.0695 20.8456 19.6786 20.8456 19.0187ZM24.0183 18.8072C23.9061 18.8072 23.7985 18.8517 23.7192 18.9311C23.6398 19.0104 23.5953 19.118 23.5953 19.2302C23.5953 19.3424 23.6398 19.45 23.7192 19.5293C23.7985 19.6086 23.9061 19.6532 24.0183 19.6532H25.2874C25.3996 19.6532 25.5072 19.6086 25.5865 19.5293C25.6658 19.45 25.7104 19.3424 25.7104 19.2302C25.7104 19.118 25.6658 19.0104 25.5865 18.9311C25.5072 18.8517 25.3996 18.8072 25.2874 18.8072H24.0183ZM21.2847 23.1296C19.876 22.6939 20.2314 21.9155 20.7686 21.3453H28.6546C29.0844 21.8944 29.315 22.6351 28.0159 23.0784C28.069 23.5497 28.0224 24.0269 27.8793 24.479C27.7361 24.9311 27.4995 25.3481 27.1848 25.7029C26.8702 26.0577 26.4844 26.3424 26.0527 26.5385C25.6209 26.7347 25.1527 26.8379 24.6785 26.8414C24.2043 26.845 23.7346 26.7489 23.2999 26.5593C22.8652 26.3697 22.4752 26.0908 22.1552 25.7408C21.8352 25.3908 21.5924 24.9774 21.4424 24.5275C21.2925 24.0776 21.2387 23.6012 21.2847 23.1292V23.1296ZM24.5378 23.4604C25.6554 23.4604 26.5218 23.4012 27.1859 23.298C27.2077 23.6429 27.1589 23.9886 27.0424 24.314C26.9259 24.6393 26.7442 24.9375 26.5084 25.1901C26.2726 25.4428 25.9877 25.6446 25.6711 25.7833C25.3546 25.9219 25.013 25.9944 24.6674 25.9964C24.3219 25.9984 23.9795 25.9298 23.6614 25.7948C23.3432 25.6598 23.056 25.4613 22.8173 25.2114C22.5786 24.9615 22.3935 24.6654 22.2733 24.3414C22.153 24.0174 22.1002 23.6723 22.1181 23.3272C22.737 23.4126 23.5301 23.4604 24.5378 23.4604ZM28.2134 29.6366C27.8308 29.0396 27.3041 28.5485 26.6819 28.2084C26.0597 27.8684 25.3619 27.6903 24.6528 27.6907C23.9435 27.6902 23.2454 27.8683 22.6229 28.2085C22.0005 28.5487 21.4736 29.0401 21.091 29.6374C20.9489 29.4187 20.7308 29.2604 20.4788 29.1933L19.6616 28.9746C19.3907 28.9019 19.102 28.9399 18.8591 29.0801C18.6162 29.2202 18.4389 29.4512 18.3663 29.722L18.038 30.948C18.002 31.0821 17.9929 31.222 18.011 31.3598C18.0291 31.4975 18.0742 31.6302 18.1437 31.7505C18.2131 31.8708 18.3056 31.9762 18.4158 32.0608C18.526 32.1453 18.6517 32.2073 18.7859 32.2433L19.6028 32.4624C19.7402 32.4994 19.8836 32.5082 20.0245 32.4883C20.1654 32.4684 20.3008 32.4201 20.4226 32.3465C20.4229 32.4587 20.4678 32.5661 20.5474 32.6452C20.627 32.7243 20.7347 32.7686 20.8469 32.7682C20.9591 32.7679 21.0665 32.723 21.1456 32.6434C21.2247 32.5639 21.269 32.4561 21.2686 32.3439V31.9209C21.2686 31.7597 21.2801 31.6011 21.3016 31.4459L23.503 32.036C23.6052 32.2547 23.7677 32.4397 23.9713 32.5694C24.175 32.699 24.4114 32.7679 24.6528 32.7679C24.8942 32.7679 25.1307 32.699 25.3343 32.5694C25.538 32.4397 25.7004 32.2547 25.8026 32.036L28.004 31.4459C28.0256 31.6011 28.037 31.7597 28.037 31.9209V32.3439C28.0365 32.4561 28.0805 32.564 28.1594 32.6437C28.2384 32.7234 28.3457 32.7685 28.4579 32.7691C28.5701 32.7696 28.6779 32.7256 28.7577 32.6467C28.8374 32.5677 28.8825 32.4604 28.8831 32.3482C29.12 32.4903 29.4127 32.5398 29.7008 32.4624L30.5181 32.2437C30.6522 32.2078 30.778 32.1457 30.8882 32.0612C30.9984 31.9767 31.0909 31.8712 31.1603 31.7509C31.2298 31.6307 31.2748 31.4979 31.293 31.3602C31.3111 31.2225 31.3019 31.0825 31.266 30.9484L30.9373 29.7225C30.8646 29.4516 30.6873 29.2207 30.4444 29.0805C30.2015 28.9403 29.9129 28.9024 29.642 28.975L28.8247 29.1937C28.5733 29.2606 28.3555 29.4182 28.2134 29.6362V29.6366ZM21.5237 30.6294C21.7522 30.0768 22.123 29.5945 22.5983 29.2315C23.0736 28.8685 23.6365 28.6379 24.2298 28.563V30.3012C24.0402 30.3684 23.8693 30.4796 23.7311 30.6258C23.5928 30.7719 23.4912 30.9487 23.4345 31.1417L21.5237 30.6298V30.6294ZM27.7819 30.6294C27.5534 30.0768 27.1826 29.5945 26.7073 29.2316C26.2321 28.8686 25.6692 28.6379 25.0759 28.563V30.3012C25.4583 30.4365 25.7569 30.7496 25.8711 31.1417L27.7819 30.6298V30.6294ZM24.6528 31.9209C24.765 31.9209 24.8726 31.8763 24.952 31.797C25.0313 31.7177 25.0759 31.6101 25.0759 31.4979C25.0759 31.3857 25.0313 31.2781 24.952 31.1988C24.8726 31.1194 24.765 31.0749 24.6528 31.0749C24.5406 31.0749 24.433 31.1194 24.3537 31.1988C24.2744 31.2781 24.2298 31.3857 24.2298 31.4979C24.2298 31.6101 24.2744 31.7177 24.3537 31.797C24.433 31.8763 24.5406 31.9209 24.6528 31.9209Z" fill="white"/>
</svg>
