<svg width="23" height="24" viewBox="0 0 23 24" fill="none" xmlns="http://www.w3.org/2000/svg">
<path d="M11.5 1.62305C5.76348 1.62305 1.12305 6.26348 1.12305 12C1.12305 17.7365 5.76348 22.377 11.5 22.377C17.2365 22.377 21.877 17.7365 21.877 12C21.877 6.26348 17.2365 1.62305 11.5 1.62305ZM11.5 2.9707C16.4818 2.9707 20.5293 7.01816 20.5293 12C20.5293 16.9818 16.4818 21.0293 11.5 21.0293C6.51816 21.0293 2.4707 16.9818 2.4707 12C2.4707 7.01816 6.51816 2.9707 11.5 2.9707ZM3.61711 9.65957C3.40553 10.5221 3.2793 11.3217 3.2793 12.0854C9.77949 13.4465 8.7373 14.8885 9.92773 20.0725C10.4398 20.1668 10.9609 20.2207 11.5 20.2207C12.0391 20.2207 12.5602 20.1668 13.0723 20.0725C14.2627 14.8885 13.2205 13.4465 19.7207 12.0854C19.6938 11.2363 19.5859 10.3604 19.3838 9.65957C15.5744 8.70723 13.526 8.22656 11.5 8.22656C9.47402 8.22656 7.42559 8.70723 3.61711 9.65957ZM11.5 8.7207C13.3059 8.7207 14.7793 10.1941 14.7793 12C14.7793 13.8059 13.3059 15.2793 11.5 15.2793C9.69414 15.2793 8.2207 13.8059 8.2207 12C8.2207 10.1941 9.69414 8.7207 11.5 8.7207ZM11.5 9.5293C10.1299 9.5293 9.0293 10.6299 9.0293 12C9.0293 13.3701 10.1299 14.4707 11.5 14.4707C12.8701 14.4707 13.9707 13.3701 13.9707 12C13.9707 10.6299 12.8701 9.5293 11.5 9.5293Z" fill="#404040"/>
</svg>
