<svg width="1100" height="369" viewBox="0 0 1100 369" fill="none" xmlns="http://www.w3.org/2000/svg">
<rect x="0.555664" y="0.897461" width="1098.89" height="368" rx="16" fill="white"/>
<path d="M40.9366 25.8066H42.9181V34.4166C42.9181 35.3328 42.7029 36.1446 42.2726 36.852C41.8422 37.5551 41.237 38.1091 40.4572 38.5139C39.6774 38.9145 38.7633 39.1148 37.715 39.1148C36.671 39.1148 35.7591 38.9145 34.9792 38.5139C34.1994 38.1091 33.5943 37.5551 33.1639 36.852C32.7335 36.1446 32.5183 35.3328 32.5183 34.4166V25.8066H34.4934V34.2568C34.4934 34.8492 34.6234 35.3754 34.8833 35.8357C35.1475 36.2959 35.5204 36.6581 36.002 36.9223C36.4835 37.1823 37.0545 37.3122 37.715 37.3122C38.3798 37.3122 38.9529 37.1823 39.4345 36.9223C39.9203 36.6581 40.291 36.2959 40.5467 35.8357C40.8066 35.3754 40.9366 34.8492 40.9366 34.2568V25.8066ZM45.6364 42.5793V29.0793H47.5028V30.6709H47.6626C47.7734 30.4664 47.9332 30.2298 48.142 29.9614C48.3509 29.6929 48.6406 29.4585 49.0114 29.2583C49.3821 29.0537 49.8722 28.9514 50.4815 28.9514C51.2741 28.9514 51.9815 29.1517 52.6037 29.5523C53.2259 29.9529 53.7138 30.5303 54.0675 31.2845C54.4254 32.0388 54.6044 32.9465 54.6044 34.0075C54.6044 35.0686 54.4276 35.9784 54.0739 36.7369C53.7202 37.4912 53.2344 38.0729 52.6165 38.482C51.9986 38.8868 51.2933 39.0892 50.5007 39.0892C49.9041 39.0892 49.4162 38.9891 49.0369 38.7888C48.6619 38.5885 48.3679 38.3541 48.1548 38.0857C47.9418 37.8172 47.7777 37.5786 47.6626 37.3698H47.5476V42.5793H45.6364ZM47.5092 33.9884C47.5092 34.6787 47.6094 35.2838 47.8097 35.8037C48.0099 36.3236 48.2997 36.7306 48.679 37.0246C49.0582 37.3144 49.5227 37.4593 50.0724 37.4593C50.6435 37.4593 51.1207 37.308 51.5043 37.0054C51.8878 36.6986 52.1776 36.2831 52.3736 35.759C52.5739 35.2348 52.674 34.6446 52.674 33.9884C52.674 33.3406 52.576 32.759 52.38 32.2433C52.1882 31.7277 51.8984 31.3208 51.5107 31.0225C51.1271 30.7242 50.6477 30.575 50.0724 30.575C49.5185 30.575 49.0497 30.7178 48.6662 31.0033C48.2869 31.2888 47.9993 31.6872 47.8033 32.1986C47.6072 32.71 47.5092 33.3066 47.5092 33.9884ZM61.3288 29.0793V30.6134H55.9659V29.0793H61.3288ZM57.4041 26.727H59.3153V36.0146C59.3153 36.3854 59.3707 36.6645 59.4815 36.852C59.5923 37.0352 59.7351 37.161 59.9098 37.2291C60.0888 37.2931 60.2827 37.325 60.4915 37.325C60.6449 37.325 60.7791 37.3144 60.8942 37.2931C61.0092 37.2718 61.0987 37.2547 61.1626 37.2419L61.5078 38.8208C61.397 38.8634 61.2393 38.906 61.0348 38.9486C60.8303 38.9955 60.5746 39.021 60.2678 39.0253C59.7649 39.0338 59.2962 38.9443 58.8615 38.7568C58.4268 38.5693 58.0753 38.2796 57.8068 37.8875C57.5384 37.4955 57.4041 37.0033 57.4041 36.411V26.727ZM63.443 38.8975V29.0793H65.3542V38.8975H63.443ZM64.4082 27.5644C64.0758 27.5644 63.7903 27.4536 63.5517 27.232C63.3173 27.0061 63.2001 26.7377 63.2001 26.4266C63.2001 26.1112 63.3173 25.8428 63.5517 25.6212C63.7903 25.3953 64.0758 25.2824 64.4082 25.2824C64.7406 25.2824 65.024 25.3953 65.2583 25.6212C65.497 25.8428 65.6163 26.1112 65.6163 26.4266C65.6163 26.7377 65.497 27.0061 65.2583 27.232C65.024 27.4536 64.7406 27.5644 64.4082 27.5644ZM67.9254 38.8975V29.0793H69.7599V30.6773H69.8814C70.0859 30.1361 70.4205 29.7142 70.8849 29.4117C71.3494 29.1048 71.9055 28.9514 72.5533 28.9514C73.2095 28.9514 73.7592 29.1048 74.2024 29.4117C74.6499 29.7185 74.9801 30.1404 75.1932 30.6773H75.2955C75.5298 30.1531 75.9027 29.7355 76.4141 29.4244C76.9254 29.1091 77.5348 28.9514 78.2422 28.9514C79.1328 28.9514 79.8594 29.2306 80.4219 29.7888C80.9886 30.347 81.272 31.1887 81.272 32.3137V38.8975H79.3608V32.4926C79.3608 31.8279 79.1797 31.3463 78.8175 31.048C78.4553 30.7497 78.0227 30.6006 77.5199 30.6006C76.8977 30.6006 76.4141 30.7923 76.0689 31.1759C75.7237 31.5551 75.5511 32.0431 75.5511 32.6396V38.8975H73.6463V32.3712C73.6463 31.8385 73.4801 31.4102 73.1477 31.0864C72.8153 30.7625 72.3828 30.6006 71.8501 30.6006C71.4879 30.6006 71.1534 30.6965 70.8466 30.8882C70.544 31.0757 70.299 31.3378 70.1115 31.6744C69.9283 32.0111 69.8366 32.401 69.8366 32.8442V38.8975H67.9254ZM88.0652 39.0956C87.0978 39.0956 86.2647 38.8889 85.5659 38.4756C84.8713 38.058 84.3343 37.472 83.9551 36.7178C83.5801 35.9593 83.3926 35.0708 83.3926 34.0523C83.3926 33.0466 83.5801 32.1602 83.9551 31.3932C84.3343 30.6262 84.8627 30.0274 85.5403 29.597C86.2221 29.1666 87.019 28.9514 87.9309 28.9514C88.4849 28.9514 89.0218 29.0431 89.5417 29.2263C90.0616 29.4095 90.5282 29.6972 90.9416 30.0892C91.3549 30.4813 91.6809 30.9905 91.9196 31.6169C92.1582 32.2391 92.2775 32.9955 92.2775 33.8861V34.5637H84.4728V33.1318H90.4047C90.4047 32.629 90.3024 32.1837 90.0978 31.7959C89.8933 31.4039 89.6056 31.0949 89.2349 30.8691C88.8684 30.6432 88.438 30.5303 87.9437 30.5303C87.4068 30.5303 86.938 30.6624 86.5375 30.9266C86.1412 31.1865 85.8343 31.5274 85.617 31.9493C85.4039 32.3669 85.2974 32.8208 85.2974 33.3108V34.4294C85.2974 35.0857 85.4125 35.6439 85.6426 36.1041C85.877 36.5644 86.2029 36.9159 86.6206 37.1588C87.0382 37.3975 87.5261 37.5168 88.0843 37.5168C88.4466 37.5168 88.7768 37.4656 89.0751 37.3634C89.3734 37.2568 89.6312 37.0992 89.8485 36.8904C90.0659 36.6816 90.2321 36.4237 90.3471 36.1169L92.1561 36.4429C92.0112 36.9756 91.7512 37.4422 91.3762 37.8428C91.0055 38.2391 90.5389 38.548 89.9764 38.7696C89.4181 38.9869 88.7811 39.0956 88.0652 39.0956ZM99.3152 38.8975V25.8066H103.981C104.996 25.8066 105.837 25.9813 106.506 26.3307C107.18 26.6801 107.682 27.1638 108.015 27.7817C108.347 28.3953 108.513 29.1048 108.513 29.9102C108.513 30.7114 108.345 31.4166 108.008 32.026C107.676 32.6311 107.173 33.102 106.5 33.4387C105.831 33.7753 104.989 33.9436 103.975 33.9436H100.44V32.2433H103.796C104.435 32.2433 104.955 32.1517 105.356 31.9685C105.76 31.7852 106.057 31.5189 106.244 31.1695C106.432 30.82 106.525 30.4003 106.525 29.9102C106.525 29.4159 106.43 28.9877 106.238 28.6254C106.05 28.2632 105.754 27.9862 105.349 27.7945C104.949 27.5985 104.422 27.5004 103.77 27.5004H101.29V38.8975H99.3152ZM105.778 32.9912L109.012 38.8975H106.762L103.591 32.9912H105.778ZM114.872 39.0956C113.904 39.0956 113.071 38.8889 112.373 38.4756C111.678 38.058 111.141 37.472 110.762 36.7178C110.387 35.9593 110.199 35.0708 110.199 34.0523C110.199 33.0466 110.387 32.1602 110.762 31.3932C111.141 30.6262 111.669 30.0274 112.347 29.597C113.029 29.1666 113.826 28.9514 114.738 28.9514C115.292 28.9514 115.828 29.0431 116.348 29.2263C116.868 29.4095 117.335 29.6972 117.748 30.0892C118.162 30.4813 118.488 30.9905 118.726 31.6169C118.965 32.2391 119.084 32.9955 119.084 33.8861V34.5637H111.279V33.1318H117.211C117.211 32.629 117.109 32.1837 116.904 31.7959C116.7 31.4039 116.412 31.0949 116.042 30.8691C115.675 30.6432 115.245 30.5303 114.75 30.5303C114.213 30.5303 113.745 30.6624 113.344 30.9266C112.948 31.1865 112.641 31.5274 112.424 31.9493C112.211 32.3669 112.104 32.8208 112.104 33.3108V34.4294C112.104 35.0857 112.219 35.6439 112.449 36.1041C112.684 36.5644 113.01 36.9159 113.427 37.1588C113.845 37.3975 114.333 37.5168 114.891 37.5168C115.253 37.5168 115.583 37.4656 115.882 37.3634C116.18 37.2568 116.438 37.0992 116.655 36.8904C116.873 36.6816 117.039 36.4237 117.154 36.1169L118.963 36.4429C118.818 36.9756 118.558 37.4422 118.183 37.8428C117.812 38.2391 117.346 38.548 116.783 38.7696C116.225 38.9869 115.588 39.0956 114.872 39.0956ZM124.062 39.1148C123.44 39.1148 122.877 38.9997 122.374 38.7696C121.872 38.5352 121.473 38.1965 121.179 37.7533C120.889 37.3101 120.744 36.7668 120.744 36.1233C120.744 35.5693 120.851 35.1134 121.064 34.7554C121.277 34.3975 121.565 34.1141 121.927 33.9053C122.289 33.6965 122.694 33.5388 123.142 33.4323C123.589 33.3257 124.045 33.2448 124.509 33.1894C125.097 33.1212 125.575 33.0658 125.941 33.0232C126.308 32.9763 126.574 32.9017 126.74 32.7994C126.906 32.6972 126.99 32.531 126.99 32.3009V32.2561C126.99 31.6979 126.832 31.2654 126.517 30.9585C126.205 30.6517 125.741 30.4983 125.123 30.4983C124.48 30.4983 123.972 30.6411 123.602 30.9266C123.235 31.2078 122.982 31.521 122.841 31.8662L121.045 31.4571C121.258 30.8605 121.569 30.379 121.978 30.0125C122.392 29.6418 122.867 29.3733 123.404 29.2071C123.941 29.0367 124.505 28.9514 125.097 28.9514C125.49 28.9514 125.905 28.9983 126.344 29.0921C126.787 29.1816 127.2 29.3477 127.584 29.5906C127.972 29.8335 128.289 30.1808 128.536 30.6325C128.784 31.08 128.907 31.6617 128.907 32.3776V38.8975H127.041V37.5551H126.964C126.84 37.8023 126.655 38.0452 126.408 38.2838C126.161 38.5225 125.843 38.7206 125.455 38.8783C125.068 39.036 124.603 39.1148 124.062 39.1148ZM124.477 37.5807C125.006 37.5807 125.458 37.4763 125.833 37.2675C126.212 37.0587 126.499 36.786 126.695 36.4493C126.896 36.1084 126.996 35.7441 126.996 35.3563V34.0906C126.928 34.1588 126.796 34.2227 126.6 34.2824C126.408 34.3378 126.188 34.3868 125.941 34.4294C125.694 34.4678 125.453 34.504 125.219 34.5381C124.985 34.5679 124.789 34.5935 124.631 34.6148C124.26 34.6617 123.921 34.7405 123.615 34.8513C123.312 34.9621 123.069 35.1219 122.886 35.3307C122.707 35.5352 122.617 35.808 122.617 36.1489C122.617 36.6219 122.792 36.9798 123.142 37.2227C123.491 37.4614 123.936 37.5807 124.477 37.5807ZM131.453 42.5793V29.0793H133.319V30.6709H133.479C133.59 30.4664 133.75 30.2298 133.958 29.9614C134.167 29.6929 134.457 29.4585 134.828 29.2583C135.199 29.0537 135.689 28.9514 136.298 28.9514C137.091 28.9514 137.798 29.1517 138.42 29.5523C139.042 29.9529 139.53 30.5303 139.884 31.2845C140.242 32.0388 140.421 32.9465 140.421 34.0075C140.421 35.0686 140.244 35.9784 139.89 36.7369C139.537 37.4912 139.051 38.0729 138.433 38.482C137.815 38.8868 137.11 39.0892 136.317 39.0892C135.721 39.0892 135.233 38.9891 134.853 38.7888C134.478 38.5885 134.184 38.3541 133.971 38.0857C133.758 37.8172 133.594 37.5786 133.479 37.3698H133.364V42.5793H131.453ZM133.326 33.9884C133.326 34.6787 133.426 35.2838 133.626 35.8037C133.826 36.3236 134.116 36.7306 134.495 37.0246C134.875 37.3144 135.339 37.4593 135.889 37.4593C136.46 37.4593 136.937 37.308 137.321 37.0054C137.704 36.6986 137.994 36.2831 138.19 35.759C138.39 35.2348 138.49 34.6446 138.49 33.9884C138.49 33.3406 138.392 32.759 138.196 32.2433C138.005 31.7277 137.715 31.3208 137.327 31.0225C136.944 30.7242 136.464 30.575 135.889 30.575C135.335 30.575 134.866 30.7178 134.483 31.0033C134.103 31.2888 133.816 31.6872 133.62 32.1986C133.424 32.71 133.326 33.3066 133.326 33.9884ZM146.698 39.0956C145.777 39.0956 144.974 38.8847 144.288 38.4628C143.602 38.0409 143.069 37.4507 142.69 36.6922C142.311 35.9337 142.121 35.0473 142.121 34.0331C142.121 33.0146 142.311 32.124 142.69 31.3612C143.069 30.5985 143.602 30.0061 144.288 29.5843C144.974 29.1624 145.777 28.9514 146.698 28.9514C147.618 28.9514 148.422 29.1624 149.108 29.5843C149.794 30.0061 150.326 30.5985 150.706 31.3612C151.085 32.124 151.275 33.0146 151.275 34.0331C151.275 35.0473 151.085 35.9337 150.706 36.6922C150.326 37.4507 149.794 38.0409 149.108 38.4628C148.422 38.8847 147.618 39.0956 146.698 39.0956ZM146.704 37.4912C147.301 37.4912 147.795 37.3335 148.187 37.0182C148.579 36.7029 148.869 36.2831 149.056 35.759C149.248 35.2348 149.344 34.6574 149.344 34.0267C149.344 33.4003 149.248 32.825 149.056 32.3009C148.869 31.7725 148.579 31.3485 148.187 31.0289C147.795 30.7093 147.301 30.5494 146.704 30.5494C146.103 30.5494 145.605 30.7093 145.208 31.0289C144.816 31.3485 144.525 31.7725 144.333 32.3009C144.145 32.825 144.051 33.4003 144.051 34.0267C144.051 34.6574 144.145 35.2348 144.333 35.759C144.525 36.2831 144.816 36.7029 145.208 37.0182C145.605 37.3335 146.103 37.4912 146.704 37.4912ZM153.408 38.8975V29.0793H155.255V30.6389H155.357C155.536 30.1105 155.852 29.695 156.303 29.3925C156.759 29.0857 157.275 28.9323 157.85 28.9323C157.97 28.9323 158.11 28.9365 158.272 28.945C158.438 28.9536 158.568 28.9642 158.662 28.977V30.8051C158.585 30.7838 158.449 30.7604 158.253 30.7348C158.057 30.705 157.861 30.6901 157.665 30.6901C157.213 30.6901 156.811 30.786 156.457 30.9777C156.107 31.1652 155.83 31.4273 155.626 31.7639C155.421 32.0963 155.319 32.4756 155.319 32.9017V38.8975H153.408ZM165.479 29.0793V30.6134H160.116V29.0793H165.479ZM161.555 26.727H163.466V36.0146C163.466 36.3854 163.521 36.6645 163.632 36.852C163.743 37.0352 163.885 37.161 164.06 37.2291C164.239 37.2931 164.433 37.325 164.642 37.325C164.795 37.325 164.93 37.3144 165.045 37.2931C165.16 37.2718 165.249 37.2547 165.313 37.2419L165.658 38.8208C165.547 38.8634 165.39 38.906 165.185 38.9486C164.981 38.9955 164.725 39.021 164.418 39.0253C163.915 39.0338 163.447 38.9443 163.012 38.7568C162.577 38.5693 162.226 38.2796 161.957 37.8875C161.689 37.4955 161.555 37.0033 161.555 36.411V26.727Z" fill="#404040"/>
<path d="M918.499 28.8094V27.7156H926.135V28.8094H922.934V37.8975H921.701V28.8094H918.499ZM927.879 37.8975V30.2611H929.052V37.8975H927.879ZM928.476 28.9884C928.247 28.9884 928.05 28.9105 927.884 28.7547C927.722 28.5989 927.64 28.4117 927.64 28.1929C927.64 27.9742 927.722 27.7869 927.884 27.6311C928.05 27.4753 928.247 27.3975 928.476 27.3975C928.704 27.3975 928.9 27.4753 929.062 27.6311C929.228 27.7869 929.311 27.9742 929.311 28.1929C929.311 28.4117 929.228 28.5989 929.062 28.7547C928.9 28.9105 928.704 28.9884 928.476 28.9884ZM931.201 37.8975V30.2611H932.335V31.4543H932.434C932.593 31.0466 932.85 30.7301 933.205 30.5047C933.559 30.276 933.985 30.1617 934.483 30.1617C934.986 30.1617 935.406 30.276 935.74 30.5047C936.078 30.7301 936.342 31.0466 936.531 31.4543H936.61C936.806 31.0599 937.099 30.7467 937.49 30.5146C937.881 30.2793 938.35 30.1617 938.897 30.1617C939.58 30.1617 940.139 30.3754 940.573 30.803C941.007 31.2272 941.224 31.8885 941.224 32.7867V37.8975H940.051V32.7867C940.051 32.2232 939.897 31.8205 939.588 31.5786C939.28 31.3366 938.917 31.2156 938.5 31.2156C937.963 31.2156 937.547 31.378 937.252 31.7029C936.957 32.0244 936.809 32.432 936.809 32.9259V37.8975H935.616V32.6673C935.616 32.2332 935.475 31.8835 935.193 31.6183C934.912 31.3499 934.549 31.2156 934.105 31.2156C933.8 31.2156 933.515 31.2968 933.25 31.4593C932.988 31.6217 932.776 31.847 932.613 32.1354C932.454 32.4204 932.375 32.7502 932.375 33.1247V37.8975H931.201ZM946.571 38.0566C945.835 38.0566 945.2 37.8941 944.667 37.5693C944.137 37.2412 943.727 36.7838 943.439 36.1972C943.154 35.6072 943.011 34.9211 943.011 34.1389C943.011 33.3567 943.154 32.6673 943.439 32.0708C943.727 31.4709 944.128 31.0035 944.642 30.6688C945.159 30.3307 945.762 30.1617 946.452 30.1617C946.849 30.1617 947.242 30.228 947.63 30.3605C948.018 30.4931 948.371 30.7085 948.689 31.0068C949.007 31.3018 949.261 31.6929 949.45 32.1801C949.638 32.6673 949.733 33.2673 949.733 33.9798V34.477H943.847V33.4628H948.54C948.54 33.0319 948.454 32.6475 948.281 32.3094C948.112 31.9713 947.87 31.7045 947.555 31.509C947.244 31.3134 946.876 31.2156 946.452 31.2156C945.984 31.2156 945.58 31.3316 945.239 31.5637C944.901 31.7923 944.64 32.0906 944.458 32.4585C944.276 32.8264 944.185 33.2209 944.185 33.6418V34.3179C944.185 34.8946 944.284 35.3835 944.483 35.7845C944.685 36.1823 944.965 36.4855 945.323 36.6943C945.681 36.8998 946.097 37.0026 946.571 37.0026C946.879 37.0026 947.158 36.9595 947.406 36.8733C947.658 36.7838 947.875 36.6512 948.057 36.4756C948.24 36.2966 948.381 36.0745 948.48 35.8094L949.614 36.1276C949.494 36.512 949.294 36.8501 949.012 37.1418C948.73 37.4301 948.382 37.6555 947.968 37.8179C947.554 37.977 947.088 38.0566 946.571 38.0566Z" fill="#404040"/>
<path d="M1033.61 37.8975H1030.47V27.7156H1033.75C1034.74 27.7156 1035.58 27.9195 1036.29 28.3271C1036.99 28.7315 1037.53 29.3132 1037.9 30.0722C1038.28 30.8279 1038.47 31.7327 1038.47 32.7867C1038.47 33.8473 1038.28 34.7604 1037.9 35.526C1037.52 36.2883 1036.97 36.875 1036.25 37.286C1035.53 37.6936 1034.65 37.8975 1033.61 37.8975ZM1031.7 36.8037H1033.53C1034.38 36.8037 1035.07 36.6413 1035.63 36.3165C1036.18 35.9917 1036.59 35.5293 1036.86 34.9294C1037.14 34.3295 1037.27 33.6153 1037.27 32.7867C1037.27 31.9647 1037.14 31.2571 1036.87 30.6638C1036.6 30.0672 1036.2 29.6098 1035.67 29.2916C1035.13 28.9701 1034.47 28.8094 1033.67 28.8094H1031.7V36.8037ZM1042.62 38.0764C1042.14 38.0764 1041.7 37.9853 1041.3 37.803C1040.91 37.6174 1040.6 37.3506 1040.36 37.0026C1040.13 36.6512 1040.02 36.227 1040.02 35.7298C1040.02 35.2923 1040.1 34.9377 1040.27 34.6659C1040.45 34.3908 1040.68 34.1754 1040.97 34.0196C1041.25 33.8638 1041.57 33.7478 1041.92 33.6716C1042.27 33.5921 1042.62 33.5291 1042.98 33.4827C1043.44 33.423 1043.82 33.3783 1044.11 33.3485C1044.4 33.3153 1044.61 33.2606 1044.74 33.1844C1044.88 33.1082 1044.95 32.9756 1044.95 32.7867V32.7469C1044.95 32.2564 1044.81 31.8752 1044.55 31.6034C1044.28 31.3316 1043.88 31.1958 1043.34 31.1958C1042.78 31.1958 1042.34 31.3184 1042.02 31.5637C1041.7 31.8089 1041.48 32.0708 1041.35 32.3492L1040.23 31.9514C1040.43 31.4874 1040.7 31.1262 1041.03 30.8676C1041.37 30.6058 1041.73 30.4235 1042.12 30.3208C1042.52 30.2147 1042.91 30.1617 1043.3 30.1617C1043.54 30.1617 1043.82 30.1915 1044.14 30.2512C1044.46 30.3075 1044.77 30.4252 1045.07 30.6041C1045.37 30.7831 1045.62 31.0532 1045.82 31.4145C1046.02 31.7758 1046.12 32.2597 1046.12 32.8662V37.8975H1044.95V36.8634H1044.89C1044.81 37.0291 1044.68 37.2064 1044.49 37.3953C1044.31 37.5843 1044.06 37.745 1043.75 37.8776C1043.44 38.0102 1043.07 38.0764 1042.62 38.0764ZM1042.8 37.0225C1043.26 37.0225 1043.66 36.9313 1043.97 36.749C1044.3 36.5667 1044.54 36.3314 1044.7 36.0431C1044.87 35.7547 1044.95 35.4514 1044.95 35.1333V34.0594C1044.9 34.1191 1044.79 34.1737 1044.62 34.2235C1044.45 34.2699 1044.26 34.3113 1044.04 34.3477C1043.83 34.3809 1043.62 34.4107 1043.41 34.4372C1043.21 34.4604 1043.05 34.4803 1042.92 34.4969C1042.61 34.5367 1042.33 34.6013 1042.06 34.6908C1041.8 34.777 1041.59 34.9079 1041.43 35.0835C1041.27 35.2559 1041.19 35.4912 1041.19 35.7895C1041.19 36.1972 1041.34 36.5054 1041.64 36.7142C1041.95 36.9197 1042.33 37.0225 1042.8 37.0225ZM1048.75 40.7611C1048.55 40.7611 1048.37 40.7445 1048.21 40.7114C1048.06 40.6816 1047.95 40.6517 1047.89 40.6219L1048.19 39.5878C1048.47 39.6607 1048.73 39.6872 1048.94 39.6673C1049.16 39.6475 1049.36 39.5497 1049.53 39.374C1049.7 39.2017 1049.86 38.9216 1050 38.5338L1050.22 37.9372L1047.39 30.2611H1048.67L1050.77 36.3463H1050.85L1052.96 30.2611H1054.23L1050.99 39.0111C1050.85 39.4055 1050.67 39.732 1050.45 39.9905C1050.23 40.2523 1049.98 40.4462 1049.7 40.5722C1049.42 40.6981 1049.1 40.7611 1048.75 40.7611Z" fill="#404040"/>
<path d="M31.9551 95.6247V94.2043L36.9835 86.2611H38.1028V88.352H37.3926L33.796 94.0452V94.1361H40.688V95.6247H31.9551ZM37.4721 97.8975V95.1929L37.4835 94.5452V86.2611H39.1483V97.8975H37.4721ZM46.7193 98.0906C45.8216 98.0869 45.0545 97.8501 44.4181 97.3804C43.7818 96.9107 43.295 96.227 42.9579 95.3293C42.6208 94.4316 42.4522 93.3501 42.4522 92.085C42.4522 90.8236 42.6208 89.7459 42.9579 88.852C43.2988 87.9581 43.7875 87.2762 44.4238 86.8066C45.064 86.3369 45.8291 86.102 46.7193 86.102C47.6094 86.102 48.3727 86.3387 49.0091 86.8122C49.6454 87.2819 50.1322 87.9637 50.4693 88.8577C50.8102 89.7478 50.9806 90.8236 50.9806 92.085C50.9806 93.3539 50.8121 94.4372 50.475 95.335C50.1378 96.2289 49.6511 96.9126 49.0147 97.3861C48.3784 97.8558 47.6132 98.0906 46.7193 98.0906ZM46.7193 96.5736C47.5072 96.5736 48.1227 96.1891 48.5659 95.4202C49.0128 94.6512 49.2363 93.5395 49.2363 92.085C49.2363 91.1191 49.1341 90.3028 48.9295 89.6361C48.7288 88.9656 48.439 88.4581 48.0602 88.1134C47.6852 87.7649 47.2382 87.5906 46.7193 87.5906C45.9352 87.5906 45.3197 87.977 44.8727 88.7497C44.4257 89.5225 44.2003 90.6342 44.1966 92.085C44.1966 93.0547 44.2969 93.8747 44.4977 94.5452C44.7022 95.2119 44.992 95.7175 45.367 96.0622C45.742 96.4031 46.1928 96.5736 46.7193 96.5736Z" fill="#404040"/>
<rect x="107.392" y="91.8975" width="961.528" height="0.3" fill="#33344B"/>
<path d="M36.2505 167.057C35.4702 167.057 34.7733 166.922 34.1596 166.653C33.5498 166.384 33.0668 166.011 32.7108 165.534C32.3585 165.053 32.1691 164.496 32.1426 163.863H33.9267C33.9494 164.208 34.0649 164.507 34.2733 164.761C34.4854 165.011 34.7619 165.204 35.1028 165.341C35.4437 165.477 35.8225 165.545 36.2392 165.545C36.6975 165.545 37.1028 165.466 37.4551 165.307C37.8111 165.147 38.0895 164.926 38.2903 164.642C38.4911 164.354 38.5914 164.022 38.5914 163.647C38.5914 163.257 38.4911 162.915 38.2903 162.619C38.0933 162.32 37.8036 162.085 37.421 161.915C37.0422 161.744 36.5839 161.659 36.046 161.659H35.063V160.227H36.046C36.4778 160.227 36.8566 160.149 37.1824 159.994C37.5119 159.839 37.7695 159.623 37.9551 159.346C38.1407 159.066 38.2335 158.738 38.2335 158.363C38.2335 158.004 38.152 157.691 37.9892 157.426C37.8301 157.157 37.6028 156.947 37.3074 156.795C37.0157 156.644 36.671 156.568 36.2733 156.568C35.8945 156.568 35.5403 156.638 35.2108 156.778C34.885 156.915 34.6199 157.111 34.4153 157.369C34.2108 157.623 34.1009 157.928 34.0858 158.284H32.3869C32.4058 157.655 32.5914 157.102 32.9437 156.625C33.2998 156.147 33.7695 155.774 34.3528 155.505C34.9361 155.236 35.5839 155.102 36.296 155.102C37.0422 155.102 37.6861 155.248 38.2278 155.54C38.7733 155.827 39.1937 156.212 39.4892 156.693C39.7884 157.174 39.9361 157.7 39.9324 158.272C39.9361 158.924 39.7543 159.477 39.3869 159.932C39.0233 160.386 38.5384 160.691 37.9324 160.846V160.937C38.7051 161.055 39.3036 161.361 39.7278 161.858C40.1558 162.354 40.368 162.969 40.3642 163.704C40.368 164.344 40.1899 164.918 39.8301 165.426C39.474 165.933 38.9873 166.333 38.3699 166.625C37.7524 166.913 37.046 167.057 36.2505 167.057ZM46.563 167.091C45.6653 167.087 44.8983 166.85 44.2619 166.38C43.6255 165.911 43.1388 165.227 42.8017 164.329C42.4645 163.432 42.296 162.35 42.296 161.085C42.296 159.824 42.4645 158.746 42.8017 157.852C43.1426 156.958 43.6312 156.276 44.2676 155.807C44.9077 155.337 45.6729 155.102 46.563 155.102C47.4532 155.102 48.2164 155.339 48.8528 155.812C49.4892 156.282 49.9759 156.964 50.313 157.858C50.6539 158.748 50.8244 159.824 50.8244 161.085C50.8244 162.354 50.6558 163.437 50.3187 164.335C49.9816 165.229 49.4949 165.913 48.8585 166.386C48.2221 166.856 47.457 167.091 46.563 167.091ZM46.563 165.574C47.3509 165.574 47.9664 165.189 48.4096 164.42C48.8566 163.651 49.0801 162.54 49.0801 161.085C49.0801 160.119 48.9778 159.303 48.7733 158.636C48.5725 157.966 48.2827 157.458 47.9039 157.113C47.5289 156.765 47.082 156.591 46.563 156.591C45.7789 156.591 45.1634 156.977 44.7164 157.75C44.2695 158.522 44.0441 159.634 44.0403 161.085C44.0403 162.055 44.1407 162.875 44.3414 163.545C44.546 164.212 44.8358 164.718 45.2108 165.062C45.5858 165.403 46.0365 165.574 46.563 165.574Z" fill="#404040"/>
<rect x="107.392" y="160.897" width="961.528" height="0.3" fill="#33344B"/>
<path d="M32.1994 235.897V234.625L36.1369 230.545C36.5574 230.102 36.9039 229.714 37.1767 229.38C37.4532 229.043 37.6596 228.723 37.796 228.42C37.9324 228.117 38.0005 227.795 38.0005 227.454C38.0005 227.068 37.9096 226.735 37.7278 226.454C37.546 226.17 37.2979 225.952 36.9835 225.801C36.6691 225.646 36.3149 225.568 35.921 225.568C35.5043 225.568 35.1407 225.653 34.8301 225.824C34.5195 225.994 34.2808 226.235 34.1142 226.545C33.9475 226.856 33.8642 227.219 33.8642 227.636H32.188C32.188 226.928 32.3509 226.308 32.6767 225.778C33.0024 225.248 33.4494 224.837 34.0176 224.545C34.5858 224.25 35.2316 224.102 35.9551 224.102C36.6861 224.102 37.3301 224.248 37.8869 224.54C38.4475 224.827 38.885 225.221 39.1994 225.721C39.5138 226.218 39.671 226.778 39.671 227.403C39.671 227.835 39.5895 228.257 39.4267 228.67C39.2676 229.083 38.9892 229.543 38.5914 230.051C38.1937 230.555 37.6407 231.166 36.9324 231.886L34.6199 234.307V234.392H39.8585V235.897H32.1994ZM46.063 236.091C45.1653 236.087 44.3983 235.85 43.7619 235.38C43.1255 234.911 42.6388 234.227 42.3017 233.329C41.9645 232.432 41.796 231.35 41.796 230.085C41.796 228.824 41.9645 227.746 42.3017 226.852C42.6426 225.958 43.1312 225.276 43.7676 224.807C44.4077 224.337 45.1729 224.102 46.063 224.102C46.9532 224.102 47.7164 224.339 48.3528 224.812C48.9892 225.282 49.4759 225.964 49.813 226.858C50.1539 227.748 50.3244 228.824 50.3244 230.085C50.3244 231.354 50.1558 232.437 49.8187 233.335C49.4816 234.229 48.9949 234.913 48.3585 235.386C47.7221 235.856 46.957 236.091 46.063 236.091ZM46.063 234.574C46.8509 234.574 47.4664 234.189 47.9096 233.42C48.3566 232.651 48.5801 231.54 48.5801 230.085C48.5801 229.119 48.4778 228.303 48.2733 227.636C48.0725 226.966 47.7827 226.458 47.4039 226.113C47.0289 225.765 46.582 225.591 46.063 225.591C45.2789 225.591 44.6634 225.977 44.2164 226.75C43.7695 227.522 43.5441 228.634 43.5403 230.085C43.5403 231.055 43.6407 231.875 43.8414 232.545C44.046 233.212 44.3358 233.718 44.7108 234.062C45.0858 234.403 45.5365 234.574 46.063 234.574Z" fill="#404040"/>
<rect x="107.392" y="229.897" width="961.528" height="0.3" fill="#33344B"/>
<path d="M108.67 333.261H110.801L114.506 342.307H114.642L118.347 333.261H120.477V344.897H118.807V336.477H118.699L115.267 344.88H113.881L110.449 336.471H110.341V344.897H108.67V333.261ZM126.57 345.074C125.751 345.074 125.037 344.886 124.428 344.511C123.818 344.136 123.344 343.611 123.007 342.937C122.67 342.263 122.501 341.475 122.501 340.574C122.501 339.668 122.67 338.877 123.007 338.199C123.344 337.521 123.818 336.994 124.428 336.619C125.037 336.244 125.751 336.057 126.57 336.057C127.388 336.057 128.102 336.244 128.712 336.619C129.322 336.994 129.795 337.521 130.132 338.199C130.469 338.877 130.638 339.668 130.638 340.574C130.638 341.475 130.469 342.263 130.132 342.937C129.795 343.611 129.322 344.136 128.712 344.511C128.102 344.886 127.388 345.074 126.57 345.074ZM126.575 343.647C127.106 343.647 127.545 343.507 127.894 343.227C128.242 342.947 128.5 342.574 128.666 342.108C128.837 341.642 128.922 341.129 128.922 340.568C128.922 340.011 128.837 339.5 128.666 339.034C128.5 338.564 128.242 338.187 127.894 337.903C127.545 337.619 127.106 337.477 126.575 337.477C126.041 337.477 125.598 337.619 125.246 337.903C124.897 338.187 124.638 338.564 124.467 339.034C124.301 339.5 124.217 340.011 124.217 340.568C124.217 341.129 124.301 341.642 124.467 342.108C124.638 342.574 124.897 342.947 125.246 343.227C125.598 343.507 126.041 343.647 126.575 343.647ZM134.233 339.716V344.897H132.534V336.17H134.165V337.591H134.273C134.474 337.129 134.788 336.757 135.216 336.477C135.648 336.197 136.191 336.057 136.847 336.057C137.441 336.057 137.962 336.182 138.409 336.432C138.856 336.678 139.203 337.045 139.449 337.534C139.695 338.022 139.818 338.627 139.818 339.346V344.897H138.119V339.551C138.119 338.918 137.955 338.424 137.625 338.068C137.295 337.708 136.843 337.528 136.267 337.528C135.873 337.528 135.523 337.613 135.216 337.784C134.913 337.954 134.672 338.204 134.494 338.534C134.32 338.86 134.233 339.254 134.233 339.716Z" fill="#404040"/>
<path d="M268.351 334.772V333.261H277.357V334.772H273.726V344.897H271.976V334.772H268.351ZM283.551 341.278V336.17H285.256V344.897H283.585V343.386H283.494C283.294 343.852 282.972 344.24 282.529 344.551C282.089 344.858 281.542 345.011 280.887 345.011C280.326 345.011 279.83 344.888 279.398 344.642C278.97 344.392 278.633 344.022 278.387 343.534C278.144 343.045 278.023 342.441 278.023 341.721V336.17H279.722V341.517C279.722 342.111 279.887 342.585 280.216 342.937C280.546 343.29 280.974 343.466 281.5 343.466C281.818 343.466 282.135 343.386 282.449 343.227C282.767 343.068 283.03 342.827 283.239 342.505C283.451 342.183 283.555 341.774 283.551 341.278ZM291.3 345.074C290.44 345.074 289.7 344.89 289.078 344.522C288.461 344.151 287.984 343.63 287.646 342.96C287.313 342.286 287.146 341.496 287.146 340.591C287.146 339.697 287.313 338.909 287.646 338.227C287.984 337.545 288.453 337.013 289.056 336.63C289.662 336.248 290.37 336.057 291.181 336.057C291.673 336.057 292.15 336.138 292.612 336.301C293.075 336.464 293.489 336.719 293.857 337.068C294.224 337.416 294.514 337.869 294.726 338.426C294.938 338.979 295.044 339.651 295.044 340.443V341.045H288.107V339.772H293.379C293.379 339.325 293.289 338.93 293.107 338.585C292.925 338.236 292.669 337.962 292.34 337.761C292.014 337.56 291.631 337.46 291.192 337.46C290.715 337.46 290.298 337.577 289.942 337.812C289.59 338.043 289.317 338.346 289.124 338.721C288.934 339.093 288.84 339.496 288.84 339.932V340.926C288.84 341.509 288.942 342.005 289.146 342.415C289.355 342.824 289.645 343.136 290.016 343.352C290.387 343.564 290.821 343.67 291.317 343.67C291.639 343.67 291.932 343.625 292.198 343.534C292.463 343.439 292.692 343.299 292.885 343.113C293.078 342.928 293.226 342.699 293.328 342.426L294.936 342.716C294.807 343.189 294.576 343.604 294.243 343.96C293.914 344.312 293.499 344.587 292.999 344.784C292.503 344.977 291.936 345.074 291.3 345.074Z" fill="#404040"/>
<path d="M422.301 344.897L419.074 333.261H420.92L423.187 342.272H423.295L425.653 333.261H427.483L429.841 342.278H429.949L432.21 333.261H434.062L430.829 344.897H429.062L426.613 336.182H426.523L424.074 344.897H422.301ZM438.429 345.074C437.569 345.074 436.828 344.89 436.207 344.522C435.59 344.151 435.113 343.63 434.775 342.96C434.442 342.286 434.275 341.496 434.275 340.591C434.275 339.697 434.442 338.909 434.775 338.227C435.113 337.545 435.582 337.013 436.184 336.63C436.791 336.248 437.499 336.057 438.309 336.057C438.802 336.057 439.279 336.138 439.741 336.301C440.203 336.464 440.618 336.719 440.986 337.068C441.353 337.416 441.643 337.869 441.855 338.426C442.067 338.979 442.173 339.651 442.173 340.443V341.045H435.236V339.772H440.508C440.508 339.325 440.417 338.93 440.236 338.585C440.054 338.236 439.798 337.962 439.469 337.761C439.143 337.56 438.76 337.46 438.321 337.46C437.844 337.46 437.427 337.577 437.071 337.812C436.719 338.043 436.446 338.346 436.253 338.721C436.063 339.093 435.969 339.496 435.969 339.932V340.926C435.969 341.509 436.071 342.005 436.275 342.415C436.484 342.824 436.773 343.136 437.145 343.352C437.516 343.564 437.95 343.67 438.446 343.67C438.768 343.67 439.061 343.625 439.327 343.534C439.592 343.439 439.821 343.299 440.014 343.113C440.207 342.928 440.355 342.699 440.457 342.426L442.065 342.716C441.936 343.189 441.705 343.604 441.372 343.96C441.042 344.312 440.628 344.587 440.128 344.784C439.631 344.977 439.065 345.074 438.429 345.074ZM447.325 345.068C446.621 345.068 445.992 344.888 445.439 344.528C444.89 344.165 444.458 343.647 444.143 342.977C443.833 342.303 443.677 341.494 443.677 340.551C443.677 339.608 443.835 338.801 444.149 338.13C444.467 337.46 444.903 336.947 445.456 336.591C446.009 336.235 446.636 336.057 447.336 336.057C447.878 336.057 448.314 336.147 448.643 336.329C448.977 336.507 449.234 336.716 449.416 336.954C449.602 337.193 449.746 337.403 449.848 337.585H449.95V333.261H451.649V344.897H449.99V343.54H449.848C449.746 343.725 449.598 343.937 449.405 344.176C449.215 344.415 448.954 344.623 448.621 344.801C448.287 344.979 447.855 345.068 447.325 345.068ZM447.7 343.619C448.189 343.619 448.602 343.49 448.939 343.233C449.28 342.971 449.537 342.61 449.711 342.147C449.89 341.685 449.979 341.147 449.979 340.534C449.979 339.928 449.891 339.397 449.717 338.943C449.543 338.488 449.287 338.134 448.95 337.88C448.613 337.627 448.196 337.5 447.7 337.5C447.189 337.5 446.763 337.632 446.422 337.897C446.081 338.163 445.823 338.524 445.649 338.983C445.479 339.441 445.393 339.958 445.393 340.534C445.393 341.117 445.48 341.642 445.655 342.108C445.829 342.574 446.086 342.943 446.427 343.216C446.772 343.485 447.196 343.619 447.7 343.619Z" fill="#404040"/>
<path d="M734.427 344.897V333.261H741.643V334.772H736.183V338.318H741.126V339.824H736.183V344.897H734.427ZM743.556 344.897V336.17H745.198V337.557H745.289C745.448 337.087 745.728 336.718 746.13 336.449C746.535 336.176 746.994 336.04 747.505 336.04C747.611 336.04 747.736 336.043 747.88 336.051C748.028 336.058 748.143 336.068 748.227 336.079V337.704C748.158 337.685 748.037 337.665 747.863 337.642C747.689 337.615 747.514 337.602 747.34 337.602C746.939 337.602 746.581 337.687 746.266 337.858C745.956 338.024 745.71 338.257 745.528 338.557C745.346 338.852 745.255 339.189 745.255 339.568V344.897H743.556ZM749.697 344.897V336.17H751.396V344.897H749.697ZM750.555 334.824C750.259 334.824 750.005 334.725 749.793 334.528C749.585 334.327 749.481 334.089 749.481 333.812C749.481 333.532 749.585 333.293 749.793 333.096C750.005 332.896 750.259 332.795 750.555 332.795C750.85 332.795 751.102 332.896 751.31 333.096C751.522 333.293 751.629 333.532 751.629 333.812C751.629 334.089 751.522 334.327 751.31 334.528C751.102 334.725 750.85 334.824 750.555 334.824Z" fill="#404040"/>
<path d="M879.661 336.318C879.6 335.78 879.35 335.363 878.911 335.068C878.471 334.769 877.918 334.619 877.252 334.619C876.774 334.619 876.361 334.695 876.013 334.846C875.664 334.994 875.394 335.199 875.2 335.46C875.011 335.718 874.916 336.011 874.916 336.341C874.916 336.617 874.981 336.856 875.11 337.057C875.242 337.257 875.414 337.426 875.627 337.562C875.842 337.695 876.074 337.807 876.32 337.897C876.566 337.985 876.803 338.057 877.03 338.113L878.166 338.409C878.538 338.5 878.918 338.623 879.308 338.778C879.699 338.933 880.06 339.138 880.394 339.392C880.727 339.646 880.996 339.96 881.2 340.335C881.409 340.71 881.513 341.159 881.513 341.682C881.513 342.341 881.342 342.926 881.002 343.437C880.664 343.949 880.174 344.352 879.53 344.647C878.89 344.943 878.115 345.091 877.206 345.091C876.335 345.091 875.581 344.952 874.945 344.676C874.308 344.399 873.81 344.007 873.45 343.5C873.091 342.988 872.892 342.382 872.854 341.682H874.615C874.649 342.102 874.786 342.452 875.024 342.733C875.267 343.009 875.575 343.216 875.95 343.352C876.329 343.485 876.744 343.551 877.195 343.551C877.691 343.551 878.132 343.473 878.519 343.318C878.909 343.159 879.216 342.939 879.439 342.659C879.663 342.375 879.774 342.043 879.774 341.665C879.774 341.32 879.676 341.038 879.479 340.818C879.286 340.598 879.022 340.416 878.689 340.272C878.36 340.129 877.986 340.002 877.57 339.892L876.195 339.517C875.263 339.263 874.524 338.89 873.979 338.397C873.437 337.905 873.166 337.254 873.166 336.443C873.166 335.772 873.348 335.187 873.712 334.687C874.075 334.187 874.568 333.799 875.189 333.522C875.81 333.242 876.511 333.102 877.291 333.102C878.079 333.102 878.774 333.24 879.377 333.517C879.983 333.793 880.46 334.174 880.808 334.659C881.157 335.14 881.339 335.693 881.354 336.318H879.661ZM886.014 345.091C885.461 345.091 884.961 344.988 884.514 344.784C884.067 344.575 883.713 344.274 883.452 343.88C883.194 343.486 883.065 343.004 883.065 342.432C883.065 341.939 883.16 341.534 883.35 341.216C883.539 340.897 883.795 340.646 884.117 340.46C884.439 340.274 884.798 340.134 885.196 340.04C885.594 339.945 885.999 339.873 886.412 339.824C886.935 339.763 887.359 339.714 887.685 339.676C888.011 339.634 888.247 339.568 888.395 339.477C888.543 339.386 888.617 339.238 888.617 339.034V338.994C888.617 338.498 888.476 338.113 888.196 337.841C887.92 337.568 887.507 337.432 886.958 337.432C886.386 337.432 885.935 337.558 885.605 337.812C885.279 338.062 885.054 338.341 884.929 338.647L883.333 338.284C883.522 337.754 883.798 337.325 884.162 337C884.529 336.67 884.952 336.432 885.429 336.284C885.906 336.132 886.408 336.057 886.935 336.057C887.283 336.057 887.653 336.098 888.043 336.182C888.437 336.261 888.804 336.409 889.145 336.625C889.49 336.841 889.772 337.149 889.992 337.551C890.211 337.949 890.321 338.466 890.321 339.102V344.897H888.662V343.704H888.594C888.484 343.924 888.319 344.14 888.1 344.352C887.88 344.564 887.598 344.74 887.253 344.88C886.908 345.021 886.495 345.091 886.014 345.091ZM886.384 343.727C886.853 343.727 887.255 343.634 887.588 343.449C887.925 343.263 888.181 343.021 888.355 342.721C888.533 342.418 888.622 342.094 888.622 341.75V340.625C888.562 340.685 888.444 340.742 888.27 340.795C888.1 340.844 887.904 340.888 887.685 340.926C887.465 340.96 887.251 340.992 887.043 341.022C886.834 341.049 886.66 341.072 886.52 341.091C886.19 341.132 885.889 341.202 885.617 341.301C885.348 341.399 885.132 341.541 884.969 341.727C884.81 341.909 884.73 342.151 884.73 342.454C884.73 342.875 884.886 343.193 885.196 343.409C885.507 343.621 885.903 343.727 886.384 343.727ZM896.658 336.17V337.534H891.891V336.17H896.658ZM893.169 334.079H894.868V342.335C894.868 342.665 894.917 342.913 895.016 343.079C895.114 343.242 895.241 343.354 895.396 343.415C895.556 343.471 895.728 343.5 895.913 343.5C896.05 343.5 896.169 343.49 896.271 343.471C896.374 343.452 896.453 343.437 896.51 343.426L896.817 344.829C896.718 344.867 896.578 344.905 896.396 344.943C896.215 344.985 895.987 345.007 895.715 345.011C895.268 345.019 894.851 344.939 894.465 344.772C894.078 344.606 893.766 344.348 893.527 344C893.288 343.651 893.169 343.214 893.169 342.687V334.079Z" fill="#404040"/>
<path d="M1027.71 336.318C1027.64 335.78 1027.39 335.363 1026.96 335.068C1026.52 334.769 1025.96 334.619 1025.3 334.619C1024.82 334.619 1024.41 334.695 1024.06 334.846C1023.71 334.994 1023.44 335.199 1023.25 335.46C1023.06 335.718 1022.96 336.011 1022.96 336.341C1022.96 336.617 1023.03 336.856 1023.15 337.057C1023.29 337.257 1023.46 337.426 1023.67 337.562C1023.89 337.695 1024.12 337.807 1024.36 337.897C1024.61 337.985 1024.85 338.057 1025.07 338.113L1026.21 338.409C1026.58 338.5 1026.96 338.623 1027.35 338.778C1027.74 338.933 1028.11 339.138 1028.44 339.392C1028.77 339.646 1029.04 339.96 1029.25 340.335C1029.45 340.71 1029.56 341.159 1029.56 341.682C1029.56 342.341 1029.39 342.926 1029.05 343.437C1028.71 343.949 1028.22 344.352 1027.57 344.647C1026.93 344.943 1026.16 345.091 1025.25 345.091C1024.38 345.091 1023.63 344.952 1022.99 344.676C1022.35 344.399 1021.86 344.007 1021.5 343.5C1021.14 342.988 1020.94 342.382 1020.9 341.682H1022.66C1022.69 342.102 1022.83 342.452 1023.07 342.733C1023.31 343.009 1023.62 343.216 1024 343.352C1024.37 343.485 1024.79 343.551 1025.24 343.551C1025.74 343.551 1026.18 343.473 1026.56 343.318C1026.95 343.159 1027.26 342.939 1027.48 342.659C1027.71 342.375 1027.82 342.043 1027.82 341.665C1027.82 341.32 1027.72 341.038 1027.52 340.818C1027.33 340.598 1027.07 340.416 1026.73 340.272C1026.4 340.129 1026.03 340.002 1025.61 339.892L1024.24 339.517C1023.31 339.263 1022.57 338.89 1022.02 338.397C1021.48 337.905 1021.21 337.254 1021.21 336.443C1021.21 335.772 1021.39 335.187 1021.76 334.687C1022.12 334.187 1022.61 333.799 1023.23 333.522C1023.86 333.242 1024.56 333.102 1025.34 333.102C1026.12 333.102 1026.82 333.24 1027.42 333.517C1028.03 333.793 1028.5 334.174 1028.85 334.659C1029.2 335.14 1029.38 335.693 1029.4 336.318H1027.71ZM1037.05 341.278V336.17H1038.75V344.897H1037.08V343.386H1036.99C1036.79 343.852 1036.47 344.24 1036.03 344.551C1035.59 344.858 1035.04 345.011 1034.38 345.011C1033.82 345.011 1033.33 344.888 1032.89 344.642C1032.47 344.392 1032.13 344.022 1031.88 343.534C1031.64 343.045 1031.52 342.441 1031.52 341.721V336.17H1033.22V341.517C1033.22 342.111 1033.38 342.585 1033.71 342.937C1034.04 343.29 1034.47 343.466 1035 343.466C1035.31 343.466 1035.63 343.386 1035.95 343.227C1036.26 343.068 1036.53 342.827 1036.74 342.505C1036.95 342.183 1037.05 341.774 1037.05 341.278ZM1042.73 339.716V344.897H1041.04V336.17H1042.67V337.591H1042.77C1042.97 337.129 1043.29 336.757 1043.72 336.477C1044.15 336.197 1044.69 336.057 1045.35 336.057C1045.94 336.057 1046.46 336.182 1046.91 336.432C1047.36 336.678 1047.7 337.045 1047.95 337.534C1048.2 338.022 1048.32 338.627 1048.32 339.346V344.897H1046.62V339.551C1046.62 338.918 1046.46 338.424 1046.13 338.068C1045.8 337.708 1045.34 337.528 1044.77 337.528C1044.37 337.528 1044.02 337.613 1043.72 337.784C1043.41 337.954 1043.17 338.204 1043 338.534C1042.82 338.86 1042.73 339.254 1042.73 339.716Z" fill="#404040"/>
<path d="M579.703 334.772V333.261H588.709V334.772H585.078V344.897H583.328V334.772H579.703ZM592.261 339.716V344.897H590.562V333.261H592.239V337.591H592.347C592.551 337.121 592.864 336.748 593.284 336.471C593.705 336.195 594.254 336.057 594.932 336.057C595.53 336.057 596.053 336.18 596.5 336.426C596.951 336.672 597.299 337.04 597.545 337.528C597.795 338.013 597.92 338.619 597.92 339.346V344.897H596.222V339.551C596.222 338.911 596.057 338.415 595.727 338.062C595.398 337.706 594.939 337.528 594.352 337.528C593.951 337.528 593.591 337.613 593.273 337.784C592.958 337.954 592.71 338.204 592.528 338.534C592.35 338.86 592.261 339.254 592.261 339.716ZM605.716 341.278V336.17H607.42V344.897H605.75V343.386H605.659C605.458 343.852 605.136 344.24 604.693 344.551C604.254 344.858 603.706 345.011 603.051 345.011C602.49 345.011 601.994 344.888 601.562 344.642C601.134 344.392 600.797 344.022 600.551 343.534C600.309 343.045 600.187 342.441 600.187 341.721V336.17H601.886V341.517C601.886 342.111 602.051 342.585 602.381 342.937C602.71 343.29 603.138 343.466 603.665 343.466C603.983 343.466 604.299 343.386 604.614 343.227C604.932 343.068 605.195 342.827 605.403 342.505C605.615 342.183 605.72 341.774 605.716 341.278Z" fill="#404040"/>
<path d="M107.392 267.522C121.508 267.092 159.703 268.81 199.559 279.115C249.379 291.997 275.535 284.268 289.235 274.607C302.936 264.945 342.792 221.147 388.876 237.893C434.959 254.64 471.079 267.522 509.689 244.979C548.3 222.435 549.545 161.891 606.839 171.552C634.24 177.349 649.186 207.621 655.413 214.062C661.641 220.503 680.323 250.775 727.652 246.267C738.862 245.623 760.035 244.978 777.472 232.097C794.909 219.215 804.873 215.35 850.957 212.13C862.167 212.13 892.059 193.451 900.777 164.467C909.496 135.482 948.106 94.9046 980.489 117.448C1012.87 139.991 1014.12 212.774 1068.92 237.249" stroke="#E16868" stroke-width="1.5"/>
<g filter="url(#filter0_d_2703_2971)">
<path d="M107.392 280.522C121.508 280.092 159.703 281.81 199.559 292.115C249.379 304.997 275.535 297.268 289.235 287.607C302.936 277.945 342.792 234.147 388.876 250.893C434.959 267.64 471.079 280.522 509.689 257.979C548.3 235.435 549.545 174.891 606.839 184.552C634.24 190.349 649.186 220.621 655.413 227.062C661.641 233.503 680.323 263.775 727.652 259.267C738.862 258.623 760.035 257.978 777.472 245.097C794.909 232.215 804.873 228.35 850.957 225.13C862.167 225.13 892.059 206.451 900.777 177.467C909.496 148.482 948.106 107.905 980.489 130.448C1012.87 152.991 1014.12 225.774 1068.92 250.249" stroke="#E16868" stroke-opacity="0.1" stroke-width="2"/>
</g>
<rect x="583.577" y="299.897" width="208" height="0.3" transform="rotate(-90 583.577 299.897)" fill="#33344B"/>
<ellipse cx="583.567" cy="171.891" rx="12.2002" ry="7.99366" fill="#E16868"/>
<path d="M199.559 280.328C159.703 269.948 121.508 268.218 107.392 268.651V295.897H1068.92V238.16C1014.12 213.508 1012.87 140.201 980.489 117.495C948.106 94.7893 909.496 135.66 900.777 164.853C892.059 194.046 862.167 212.859 850.957 212.859C804.873 216.103 794.909 219.995 777.472 232.97C760.035 245.945 738.862 246.594 727.652 247.242C680.323 251.783 661.641 221.293 655.413 214.805C649.186 208.318 634.24 177.828 606.839 171.989C549.545 162.258 548.3 223.239 509.689 245.945C471.079 268.651 434.959 255.676 388.876 238.809C342.792 221.942 302.936 266.056 289.235 275.787C275.535 285.518 249.379 293.303 199.559 280.328Z" fill="url(#paint0_linear_2703_2971)"/>
<rect x="603.418" y="125.897" width="192.306" height="42" rx="10" fill="#2AAA0B"/>
<ellipse cx="633.943" cy="147.897" rx="6.10494" ry="4" fill="#E16868"/>
<ellipse cx="720.938" cy="147.897" rx="6.10494" ry="4" fill="#FFAE82"/>
<path d="M737.364 153.897V152.184L741.909 147.729C742.343 147.29 742.706 146.9 742.995 146.559C743.285 146.218 743.503 145.888 743.647 145.569C743.792 145.249 743.865 144.908 743.865 144.546C743.865 144.133 743.771 143.779 743.583 143.485C743.396 143.187 743.138 142.956 742.81 142.794C742.482 142.633 742.109 142.552 741.691 142.552C741.261 142.552 740.884 142.641 740.56 142.82C740.236 142.995 739.985 143.244 739.806 143.568C739.631 143.892 739.544 144.277 739.544 144.725H737.287C737.287 143.894 737.477 143.172 737.856 142.558C738.235 141.944 738.758 141.469 739.422 141.133C740.091 140.796 740.858 140.628 741.723 140.628C742.601 140.628 743.373 140.792 744.037 141.12C744.702 141.448 745.218 141.897 745.584 142.468C745.955 143.04 746.14 143.691 746.14 144.424C746.14 144.915 746.047 145.396 745.859 145.869C745.672 146.342 745.341 146.866 744.868 147.441C744.4 148.017 743.741 148.714 742.893 149.532L740.637 151.826V151.916H746.338V153.897H737.364ZM753.338 154.076C752.711 154.072 752.1 153.964 751.503 153.75C750.907 153.533 750.37 153.182 749.892 152.696C749.415 152.206 749.036 151.556 748.755 150.746C748.473 149.932 748.335 148.924 748.339 147.723C748.339 146.602 748.458 145.603 748.697 144.725C748.936 143.847 749.279 143.106 749.726 142.5C750.174 141.891 750.713 141.427 751.343 141.107C751.978 140.787 752.688 140.628 753.472 140.628C754.294 140.628 755.023 140.79 755.658 141.113C756.297 141.437 756.813 141.88 757.205 142.443C757.597 143.001 757.84 143.632 757.934 144.335H755.601C755.481 143.832 755.236 143.432 754.865 143.133C754.499 142.831 754.034 142.679 753.472 142.679C752.564 142.679 751.865 143.074 751.375 143.862C750.89 144.65 750.645 145.733 750.64 147.109H750.73C750.939 146.734 751.209 146.412 751.542 146.144C751.874 145.875 752.249 145.669 752.667 145.524C753.088 145.375 753.534 145.3 754.003 145.3C754.77 145.3 755.458 145.483 756.067 145.85C756.681 146.216 757.167 146.721 757.525 147.365C757.883 148.004 758.059 148.737 758.055 149.564C758.059 150.424 757.863 151.198 757.467 151.884C757.071 152.566 756.519 153.103 755.811 153.495C755.104 153.887 754.28 154.081 753.338 154.076ZM753.325 152.159C753.789 152.159 754.205 152.046 754.571 151.82C754.938 151.594 755.228 151.29 755.441 150.906C755.654 150.522 755.758 150.092 755.754 149.615C755.758 149.146 755.656 148.722 755.447 148.343C755.243 147.964 754.959 147.663 754.597 147.441C754.235 147.22 753.821 147.109 753.357 147.109C753.012 147.109 752.69 147.175 752.392 147.307C752.093 147.439 751.833 147.623 751.612 147.857C751.39 148.087 751.216 148.356 751.088 148.662C750.964 148.965 750.9 149.289 750.896 149.634C750.9 150.09 751.007 150.51 751.216 150.893C751.424 151.277 751.712 151.584 752.079 151.814C752.445 152.044 752.86 152.159 753.325 152.159Z" fill="#EBEDFA"/>
<path d="M650.368 153.897V152.184L654.913 147.729C655.347 147.29 655.71 146.9 655.999 146.559C656.289 146.218 656.506 145.888 656.651 145.569C656.796 145.249 656.869 144.908 656.869 144.546C656.869 144.133 656.775 143.779 656.587 143.485C656.4 143.187 656.142 142.956 655.814 142.794C655.486 142.633 655.113 142.552 654.695 142.552C654.265 142.552 653.888 142.641 653.564 142.82C653.24 142.995 652.989 143.244 652.81 143.568C652.635 143.892 652.548 144.277 652.548 144.725H650.291C650.291 143.894 650.481 143.172 650.86 142.558C651.239 141.944 651.761 141.469 652.426 141.133C653.095 140.796 653.862 140.628 654.727 140.628C655.605 140.628 656.376 140.792 657.041 141.12C657.706 141.448 658.222 141.897 658.588 142.468C658.959 143.04 659.144 143.691 659.144 144.424C659.144 144.915 659.05 145.396 658.863 145.869C658.675 146.342 658.345 146.866 657.872 147.441C657.403 148.017 656.745 148.714 655.897 149.532L653.641 151.826V151.916H659.342V153.897H650.368ZM661.03 151.468V149.583L666.585 140.807H668.157V143.491H667.198L663.459 149.417V149.519H671.212V151.468H661.03ZM667.275 153.897V150.893L667.3 150.049V140.807H669.538V153.897H667.275Z" fill="#EBEDFA"/>
<path d="M36.6142 293.261V304.897H34.8528V295.022H34.7846L32.0005 296.841V295.159L34.9039 293.261H36.6142ZM43.813 305.091C42.9153 305.087 42.1483 304.85 41.5119 304.38C40.8755 303.911 40.3888 303.227 40.0517 302.329C39.7145 301.432 39.546 300.35 39.546 299.085C39.546 297.824 39.7145 296.746 40.0517 295.852C40.3926 294.958 40.8812 294.276 41.5176 293.807C42.1577 293.337 42.9229 293.102 43.813 293.102C44.7032 293.102 45.4664 293.339 46.1028 293.812C46.7392 294.282 47.2259 294.964 47.563 295.858C47.9039 296.748 48.0744 297.824 48.0744 299.085C48.0744 300.354 47.9058 301.437 47.5687 302.335C47.2316 303.229 46.7449 303.913 46.1085 304.386C45.4721 304.856 44.707 305.091 43.813 305.091ZM43.813 303.574C44.6009 303.574 45.2164 303.189 45.6596 302.42C46.1066 301.651 46.3301 300.54 46.3301 299.085C46.3301 298.119 46.2278 297.303 46.0233 296.636C45.8225 295.966 45.5327 295.458 45.1539 295.113C44.7789 294.765 44.332 294.591 43.813 294.591C43.0289 294.591 42.4134 294.977 41.9664 295.75C41.5195 296.522 41.2941 297.634 41.2903 299.085C41.2903 300.055 41.3907 300.875 41.5914 301.545C41.796 302.212 42.0858 302.718 42.4608 303.062C42.8358 303.403 43.2865 303.574 43.813 303.574Z" fill="#404040"/>
<rect x="107.392" y="298.897" width="961.528" height="0.3" fill="#33344B"/>
<defs>
<filter id="filter0_d_2703_2971" x="92.3618" y="111.896" width="991.966" height="207.001" filterUnits="userSpaceOnUse" color-interpolation-filters="sRGB">
<feFlood flood-opacity="0" result="BackgroundImageFix"/>
<feColorMatrix in="SourceAlpha" type="matrix" values="0 0 0 0 0 0 0 0 0 0 0 0 0 0 0 0 0 0 127 0" result="hardAlpha"/>
<feOffset dy="4"/>
<feGaussianBlur stdDeviation="7.5"/>
<feColorMatrix type="matrix" values="0 0 0 0 0 0 0 0 0 0 0 0 0 0 0 0 0 0 0.05 0"/>
<feBlend mode="normal" in2="BackgroundImageFix" result="effect1_dropShadow_2703_2971"/>
<feBlend mode="normal" in="SourceGraphic" in2="effect1_dropShadow_2703_2971" result="shape"/>
</filter>
<linearGradient id="paint0_linear_2703_2971" x1="588.156" y1="127.116" x2="588.156" y2="295.897" gradientUnits="userSpaceOnUse">
<stop stop-color="#E16868" stop-opacity="0.16"/>
<stop offset="1" stop-color="#C4C4C4" stop-opacity="0"/>
</linearGradient>
</defs>
</svg>
