<svg width="21" height="21" viewBox="0 0 21 21" fill="none" xmlns="http://www.w3.org/2000/svg">
<path fill-rule="evenodd" clip-rule="evenodd" d="M6.65079 4.63415C6.65079 4.44887 8.56116 3.15356 10.458 3.15356C12.3548 3.15356 14.2652 4.44929 14.2652 4.63415C14.2652 5.29407 14.195 5.68494 14.1358 5.89772C14.0964 6.03732 13.9657 6.11474 13.8206 6.11474H7.09539C6.95029 6.11474 6.81957 6.03732 6.78023 5.89772C6.72101 5.68494 6.65079 5.29407 6.65079 4.63415ZM9.82347 4.42264C9.71128 4.42264 9.60368 4.46721 9.52435 4.54654C9.44501 4.62587 9.40045 4.73347 9.40045 4.84566C9.40045 4.95786 9.44501 5.06545 9.52435 5.14479C9.60368 5.22412 9.71128 5.26869 9.82347 5.26869H11.0925C11.2047 5.26869 11.3123 5.22412 11.3917 5.14479C11.471 5.06545 11.5156 4.95786 11.5156 4.84566C11.5156 4.73347 11.471 4.62587 11.3917 4.54654C11.3123 4.46721 11.2047 4.42264 11.0925 4.42264H9.82347ZM7.08989 8.7451C5.68121 8.30939 6.03655 7.53102 6.5738 6.96078H14.4598C14.8896 7.50987 15.1202 8.25059 13.8211 8.69392C13.8742 9.16517 13.8276 9.64233 13.6844 10.0944C13.5413 10.5466 13.3047 10.9635 12.99 11.3183C12.6753 11.6731 12.2896 11.9579 11.8578 12.154C11.4261 12.3501 10.9579 12.4534 10.4837 12.4569C10.0094 12.4605 9.53974 12.3644 9.10506 12.1748C8.67037 11.9851 8.28039 11.7063 7.9604 11.3563C7.64042 11.0063 7.39757 10.5929 7.2476 10.143C7.09763 9.69309 7.0439 9.21668 7.08989 8.74468V8.7451ZM10.3429 9.07591C11.4606 9.07591 12.3269 9.01668 12.9911 8.91347C13.0129 9.25836 12.9641 9.60409 12.8476 9.92945C12.7311 10.2548 12.5494 10.5529 12.3136 10.8056C12.0778 11.0582 11.7929 11.2601 11.4763 11.3987C11.1597 11.5374 10.8182 11.6099 10.4726 11.6119C10.127 11.6139 9.78469 11.5453 9.46655 11.4103C9.14842 11.2753 8.86121 11.0768 8.62251 10.8269C8.38382 10.5769 8.19868 10.2809 8.07844 9.95692C7.9582 9.63292 7.90539 9.28778 7.92324 8.94265C8.54213 9.02811 9.3353 9.07591 10.3429 9.07591ZM14.0186 15.2521C13.636 14.6551 13.1093 14.164 12.4871 13.8239C11.8649 13.4839 11.1671 13.3058 10.458 13.3062C9.74864 13.3057 9.05056 13.4838 8.42809 13.824C7.80563 14.1642 7.2788 14.6556 6.89614 15.2529C6.75412 15.0342 6.53601 14.8759 6.28402 14.8087L5.46674 14.59C5.19585 14.5174 4.90721 14.5554 4.6643 14.6955C4.42139 14.8357 4.2441 15.0666 4.17144 15.3375L3.84317 16.5634C3.80722 16.6976 3.79805 16.8375 3.81618 16.9752C3.83431 17.1129 3.87938 17.2457 3.94884 17.366C4.01829 17.4863 4.11075 17.5917 4.22095 17.6763C4.33114 17.7608 4.45692 17.8228 4.59108 17.8587L5.40794 18.0779C5.54534 18.1149 5.68881 18.1237 5.82971 18.1038C5.9706 18.0839 6.10601 18.0356 6.22776 17.962C6.2281 18.0742 6.27299 18.1816 6.35256 18.2607C6.43213 18.3398 6.53986 18.3841 6.65206 18.3837C6.76425 18.3834 6.87171 18.3385 6.95081 18.2589C7.0299 18.1793 7.07415 18.0716 7.07381 17.9594V17.5364C7.07381 17.3752 7.08523 17.2166 7.10681 17.0613L9.30823 17.6515C9.41041 17.8702 9.57287 18.0552 9.77652 18.1849C9.98018 18.3145 10.2166 18.3834 10.458 18.3834C10.6994 18.3834 10.9358 18.3145 11.1395 18.1849C11.3431 18.0552 11.5056 17.8702 11.6078 17.6515L13.8092 17.0613C13.8308 17.2166 13.8422 17.3752 13.8422 17.5364V17.9594C13.8416 18.0716 13.8857 18.1794 13.9646 18.2592C14.0435 18.3389 14.1509 18.384 14.2631 18.3846C14.3753 18.3851 14.4831 18.3411 14.5629 18.2622C14.6426 18.1832 14.6877 18.0758 14.6883 17.9637C14.9251 18.1058 15.2179 18.1553 15.506 18.0779L16.3232 17.8592C16.4574 17.8232 16.5832 17.7612 16.6934 17.6767C16.8036 17.5921 16.896 17.4867 16.9655 17.3664C17.0349 17.2461 17.08 17.1134 17.0981 16.9757C17.1163 16.8379 17.1071 16.698 17.0711 16.5639L16.7425 15.3379C16.6698 15.0671 16.4925 14.8361 16.2496 14.696C16.0067 14.5558 15.718 14.5178 15.4472 14.5905L14.6299 14.8092C14.3785 14.8761 14.1607 15.0337 14.0186 15.2516V15.2521ZM7.32889 16.2449C7.55741 15.6922 7.92815 15.2099 8.40345 14.847C8.87875 14.484 9.44166 14.2534 10.035 14.1784V15.9166C9.8454 15.9839 9.67447 16.0951 9.53623 16.2412C9.39798 16.3874 9.29636 16.5642 9.2397 16.7572L7.32889 16.2453V16.2449ZM13.5871 16.2449C13.3586 15.6923 12.9878 15.21 12.5125 14.847C12.0372 14.4841 11.4743 14.2534 10.881 14.1784V15.9166C11.2634 16.052 11.5621 16.365 11.6763 16.7572L13.5871 16.2453V16.2449ZM10.458 17.5364C10.5702 17.5364 10.6778 17.4918 10.7571 17.4125C10.8365 17.3332 10.881 17.2256 10.881 17.1134C10.881 17.0012 10.8365 16.8936 10.7571 16.8142C10.6778 16.7349 10.5702 16.6903 10.458 16.6903C10.3458 16.6903 10.2382 16.7349 10.1589 16.8142C10.0796 16.8936 10.035 17.0012 10.035 17.1134C10.035 17.2256 10.0796 17.3332 10.1589 17.4125C10.2382 17.4918 10.3458 17.5364 10.458 17.5364Z" fill="#2AAA0B"/>
</svg>
