<svg width="22" height="22" viewBox="0 0 22 22" fill="none" xmlns="http://www.w3.org/2000/svg">
<g clip-path="url(#clip0_2702_2650)">
<path fill-rule="evenodd" clip-rule="evenodd" d="M1.99036 19.2932C1.99036 19.4763 2.13897 19.6249 2.32208 19.6249H5.30762V17.9662C5.30762 17.7023 5.41247 17.4492 5.5991 17.2626C5.78573 17.0759 6.03886 16.9711 6.3028 16.9711H9.62006C9.88399 16.9711 10.1371 17.0759 10.3238 17.2626C10.5104 17.4492 10.6152 17.7023 10.6152 17.9662V19.6249H13.6008C13.6887 19.6249 13.7731 19.5899 13.8353 19.5277C13.8975 19.4655 13.9325 19.3811 13.9325 19.2932V2.70685C13.9325 2.61887 13.8975 2.53449 13.8353 2.47228C13.7731 2.41007 13.6887 2.37512 13.6008 2.37512H2.32208C2.2341 2.37512 2.14973 2.41007 2.08752 2.47228C2.02531 2.53449 1.99036 2.61887 1.99036 2.70685V19.2932ZM2.32208 21.6152C1.70623 21.6152 1.1156 21.3706 0.680122 20.9351C0.244647 20.4996 0 19.909 0 19.2932L0 2.70685C0 1.42506 1.04029 0.384766 2.32208 0.384766H13.6008C14.8826 0.384766 15.9229 1.42506 15.9229 2.70685V19.2932C15.9229 19.4059 15.9149 19.5161 15.899 19.6249H18.9084C18.9964 19.6249 19.0807 19.5899 19.143 19.5277C19.2052 19.4655 19.2401 19.3811 19.2401 19.2932V11.3782C19.2402 11.3236 19.2267 11.2699 19.201 11.2217C19.1754 11.1736 19.1382 11.1325 19.0928 11.1022L17.6929 10.1694C17.5826 10.0976 17.4877 10.0046 17.4135 9.89586C17.3394 9.78711 17.2876 9.66474 17.2611 9.53583C17.2345 9.40692 17.2339 9.27403 17.259 9.14486C17.2842 9.01568 17.3348 8.89278 17.4078 8.78327C17.4808 8.67377 17.5748 8.57983 17.6843 8.5069C17.7939 8.43397 17.9168 8.38349 18.046 8.35839C18.1752 8.33329 18.3081 8.33406 18.437 8.36067C18.5659 8.38727 18.6882 8.43918 18.7969 8.51338L20.1968 9.44619C20.843 9.87744 21.2305 10.6019 21.2305 11.3782V19.2932C21.2305 19.909 20.9858 20.4996 20.5503 20.9351C20.1149 21.3706 19.5242 21.6152 18.9084 21.6152H14.2642C14.1759 21.6154 14.088 21.6038 14.0028 21.5807C13.8715 21.6033 13.7374 21.6152 13.6008 21.6152H9.62006C9.35612 21.6152 9.10299 21.5104 8.91636 21.3238C8.72973 21.1371 8.62488 20.884 8.62488 20.6201V18.9614H7.29797V20.6201C7.29797 20.884 7.19312 21.1371 7.00649 21.3238C6.81986 21.5104 6.56673 21.6152 6.3028 21.6152H2.32208ZM3.98071 5.36066C3.98071 5.09672 4.08556 4.84359 4.27219 4.65696C4.45883 4.47033 4.71195 4.36548 4.97589 4.36548H5.63934C5.90328 4.36548 6.15641 4.47033 6.34304 4.65696C6.52967 4.84359 6.63452 5.09672 6.63452 5.36066C6.63452 5.62459 6.52967 5.87772 6.34304 6.06435C6.15641 6.25099 5.90328 6.35583 5.63934 6.35583H4.97589C4.71195 6.35583 4.45883 6.25099 4.27219 6.06435C4.08556 5.87772 3.98071 5.62459 3.98071 5.36066ZM4.97589 8.34619C4.71195 8.34619 4.45883 8.45104 4.27219 8.63767C4.08556 8.8243 3.98071 9.07743 3.98071 9.34137C3.98071 9.60531 4.08556 9.85843 4.27219 10.0451C4.45883 10.2317 4.71195 10.3365 4.97589 10.3365H5.63934C5.90328 10.3365 6.15641 10.2317 6.34304 10.0451C6.52967 9.85843 6.63452 9.60531 6.63452 9.34137C6.63452 9.07743 6.52967 8.8243 6.34304 8.63767C6.15641 8.45104 5.90328 8.34619 5.63934 8.34619H4.97589ZM3.98071 13.3221C3.98071 13.0581 4.08556 12.805 4.27219 12.6184C4.45883 12.4318 4.71195 12.3269 4.97589 12.3269H5.63934C5.90328 12.3269 6.15641 12.4318 6.34304 12.6184C6.52967 12.805 6.63452 13.0581 6.63452 13.3221C6.63452 13.586 6.52967 13.8391 6.34304 14.0258C6.15641 14.2124 5.90328 14.3173 5.63934 14.3173H4.97589C4.71195 14.3173 4.45883 14.2124 4.27219 14.0258C4.08556 13.8391 3.98071 13.586 3.98071 13.3221ZM10.2835 12.3269C10.0196 12.3269 9.76644 12.4318 9.57981 12.6184C9.39318 12.805 9.28833 13.0581 9.28833 13.3221C9.28833 13.586 9.39318 13.8391 9.57981 14.0258C9.76644 14.2124 10.0196 14.3173 10.2835 14.3173H10.947C11.2109 14.3173 11.464 14.2124 11.6507 14.0258C11.8373 13.8391 11.9421 13.586 11.9421 13.3221C11.9421 13.0581 11.8373 12.805 11.6507 12.6184C11.464 12.4318 11.2109 12.3269 10.947 12.3269H10.2835ZM9.28833 9.34137C9.28833 9.07743 9.39318 8.8243 9.57981 8.63767C9.76644 8.45104 10.0196 8.34619 10.2835 8.34619H10.947C11.2109 8.34619 11.464 8.45104 11.6507 8.63767C11.8373 8.8243 11.9421 9.07743 11.9421 9.34137C11.9421 9.60531 11.8373 9.85843 11.6507 10.0451C11.464 10.2317 11.2109 10.3365 10.947 10.3365H10.2835C10.0196 10.3365 9.76644 10.2317 9.57981 10.0451C9.39318 9.85843 9.28833 9.60531 9.28833 9.34137ZM10.2835 4.36548C10.0196 4.36548 9.76644 4.47033 9.57981 4.65696C9.39318 4.84359 9.28833 5.09672 9.28833 5.36066C9.28833 5.62459 9.39318 5.87772 9.57981 6.06435C9.76644 6.25099 10.0196 6.35583 10.2835 6.35583H10.947C11.2109 6.35583 11.464 6.25099 11.6507 6.06435C11.8373 5.87772 11.9421 5.62459 11.9421 5.36066C11.9421 5.09672 11.8373 4.84359 11.6507 4.65696C11.464 4.47033 11.2109 4.36548 10.947 4.36548H10.2835Z" fill="#404040"/>
</g>
<defs>
<clipPath id="clip0_2702_2650">
<rect width="21.2305" height="21.2305" fill="white" transform="translate(0 0.384766)"/>
</clipPath>
</defs>
</svg>
