<svg width="49" height="49" viewBox="0 0 49 49" fill="none" xmlns="http://www.w3.org/2000/svg">
<circle cx="24.5557" cy="24.7329" r="24" fill="#2AAA0B"/>
<g clip-path="url(#clip0_3014_4773)">
<path fill-rule="evenodd" clip-rule="evenodd" d="M18.2593 30.5811C18.2593 30.7191 18.3713 30.8311 18.5093 30.8311H20.7593V29.5811C20.7593 29.3821 20.8383 29.1914 20.9789 29.0507C21.1196 28.9101 21.3104 28.8311 21.5093 28.8311H24.0093C24.2082 28.8311 24.399 28.9101 24.5396 29.0507C24.6803 29.1914 24.7593 29.3821 24.7593 29.5811V30.8311H27.0093C27.0756 30.8311 27.1392 30.8047 27.1861 30.7578C27.2329 30.7109 27.2593 30.6474 27.2593 30.5811V18.0811C27.2593 18.0148 27.2329 17.9512 27.1861 17.9043C27.1392 17.8574 27.0756 17.8311 27.0093 17.8311H18.5093C18.443 17.8311 18.3794 17.8574 18.3325 17.9043C18.2856 17.9512 18.2593 18.0148 18.2593 18.0811V30.5811ZM18.5093 32.3311C18.0451 32.3311 17.6 32.1467 17.2718 31.8185C16.9437 31.4903 16.7593 31.0452 16.7593 30.5811V18.0811C16.7593 17.1151 17.5433 16.3311 18.5093 16.3311H27.0093C27.9753 16.3311 28.7593 17.1151 28.7593 18.0811V30.5811C28.7593 30.6661 28.7533 30.7491 28.7413 30.8311H31.0093C31.0756 30.8311 31.1392 30.8047 31.1861 30.7578C31.2329 30.7109 31.2593 30.6474 31.2593 30.5811V24.6161C31.2593 24.5749 31.2492 24.5344 31.2298 24.4981C31.2105 24.4619 31.1825 24.4309 31.1483 24.4081L30.0933 23.7051C30.0101 23.6509 29.9386 23.5809 29.8827 23.4989C29.8268 23.417 29.7878 23.3248 29.7678 23.2276C29.7478 23.1305 29.7473 23.0303 29.7663 22.933C29.7853 22.8356 29.8234 22.743 29.8784 22.6605C29.9334 22.5779 30.0042 22.5071 30.0868 22.4522C30.1694 22.3972 30.262 22.3592 30.3594 22.3402C30.4567 22.3213 30.5569 22.3219 30.654 22.342C30.7512 22.362 30.8434 22.4011 30.9253 22.4571L31.9803 23.1601C32.4673 23.4851 32.7593 24.0311 32.7593 24.6161V30.5811C32.7593 31.0452 32.5749 31.4903 32.2467 31.8185C31.9185 32.1467 31.4734 32.3311 31.0093 32.3311H27.5093C27.4427 32.3312 27.3765 32.3224 27.3123 32.3051C27.2133 32.3221 27.1123 32.3311 27.0093 32.3311H24.0093C23.8104 32.3311 23.6196 32.252 23.4789 32.1114C23.3383 31.9707 23.2593 31.78 23.2593 31.5811V30.3311H22.2593V31.5811C22.2593 31.78 22.1803 31.9707 22.0396 32.1114C21.899 32.252 21.7082 32.3311 21.5093 32.3311H18.5093ZM19.7593 20.0811C19.7593 19.8821 19.8383 19.6914 19.9789 19.5507C20.1196 19.4101 20.3104 19.3311 20.5093 19.3311H21.0093C21.2082 19.3311 21.399 19.4101 21.5396 19.5507C21.6803 19.6914 21.7593 19.8821 21.7593 20.0811C21.7593 20.28 21.6803 20.4707 21.5396 20.6114C21.399 20.752 21.2082 20.8311 21.0093 20.8311H20.5093C20.3104 20.8311 20.1196 20.752 19.9789 20.6114C19.8383 20.4707 19.7593 20.28 19.7593 20.0811ZM20.5093 22.3311C20.3104 22.3311 20.1196 22.4101 19.9789 22.5507C19.8383 22.6914 19.7593 22.8821 19.7593 23.0811C19.7593 23.28 19.8383 23.4707 19.9789 23.6114C20.1196 23.752 20.3104 23.8311 20.5093 23.8311H21.0093C21.2082 23.8311 21.399 23.752 21.5396 23.6114C21.6803 23.4707 21.7593 23.28 21.7593 23.0811C21.7593 22.8821 21.6803 22.6914 21.5396 22.5507C21.399 22.4101 21.2082 22.3311 21.0093 22.3311H20.5093ZM19.7593 26.0811C19.7593 25.8821 19.8383 25.6914 19.9789 25.5507C20.1196 25.4101 20.3104 25.3311 20.5093 25.3311H21.0093C21.2082 25.3311 21.399 25.4101 21.5396 25.5507C21.6803 25.6914 21.7593 25.8821 21.7593 26.0811C21.7593 26.28 21.6803 26.4707 21.5396 26.6114C21.399 26.752 21.2082 26.8311 21.0093 26.8311H20.5093C20.3104 26.8311 20.1196 26.752 19.9789 26.6114C19.8383 26.4707 19.7593 26.28 19.7593 26.0811ZM24.5093 25.3311C24.3104 25.3311 24.1196 25.4101 23.9789 25.5507C23.8383 25.6914 23.7593 25.8821 23.7593 26.0811C23.7593 26.28 23.8383 26.4707 23.9789 26.6114C24.1196 26.752 24.3104 26.8311 24.5093 26.8311H25.0093C25.2082 26.8311 25.399 26.752 25.5396 26.6114C25.6803 26.4707 25.7593 26.28 25.7593 26.0811C25.7593 25.8821 25.6803 25.6914 25.5396 25.5507C25.399 25.4101 25.2082 25.3311 25.0093 25.3311H24.5093ZM23.7593 23.0811C23.7593 22.8821 23.8383 22.6914 23.9789 22.5507C24.1196 22.4101 24.3104 22.3311 24.5093 22.3311H25.0093C25.2082 22.3311 25.399 22.4101 25.5396 22.5507C25.6803 22.6914 25.7593 22.8821 25.7593 23.0811C25.7593 23.28 25.6803 23.4707 25.5396 23.6114C25.399 23.752 25.2082 23.8311 25.0093 23.8311H24.5093C24.3104 23.8311 24.1196 23.752 23.9789 23.6114C23.8383 23.4707 23.7593 23.28 23.7593 23.0811ZM24.5093 19.3311C24.3104 19.3311 24.1196 19.4101 23.9789 19.5507C23.8383 19.6914 23.7593 19.8821 23.7593 20.0811C23.7593 20.28 23.8383 20.4707 23.9789 20.6114C24.1196 20.752 24.3104 20.8311 24.5093 20.8311H25.0093C25.2082 20.8311 25.399 20.752 25.5396 20.6114C25.6803 20.4707 25.7593 20.28 25.7593 20.0811C25.7593 19.8821 25.6803 19.6914 25.5396 19.5507C25.399 19.4101 25.2082 19.3311 25.0093 19.3311H24.5093Z" fill="white"/>
</g>
<defs>
<clipPath id="clip0_3014_4773">
<rect width="16" height="16" fill="white" transform="translate(16.7593 16.3311)"/>
</clipPath>
</defs>
</svg>
