<svg width="58" height="58" viewBox="0 0 58 58" fill="none" xmlns="http://www.w3.org/2000/svg">
<rect x="1.08984" y="1.08984" width="56" height="56" rx="28" fill="#EAFCEC"/>
<g clip-path="url(#clip0_2694_2845)">
<path fill-rule="evenodd" clip-rule="evenodd" d="M20.465 37.383C20.465 37.5661 20.6136 37.7147 20.7967 37.7147H23.7822V36.0561C23.7822 35.7922 23.8871 35.539 24.0737 35.3524C24.2603 35.1658 24.5135 35.0609 24.7774 35.0609H28.0947C28.3586 35.0609 28.6117 35.1658 28.7984 35.3524C28.985 35.539 29.0898 35.7922 29.0898 36.0561V37.7147H32.0754C32.1634 37.7147 32.2477 37.6798 32.3099 37.6176C32.3722 37.5554 32.4071 37.471 32.4071 37.383V20.7967C32.4071 20.7087 32.3722 20.6243 32.3099 20.5621C32.2477 20.4999 32.1634 20.465 32.0754 20.465H20.7967C20.7087 20.465 20.6243 20.4999 20.5621 20.5621C20.4999 20.6243 20.465 20.7087 20.465 20.7967V37.383ZM20.7967 39.7051C20.1808 39.7051 19.5902 39.4604 19.1547 39.025C18.7193 38.5895 18.4746 37.9989 18.4746 37.383V20.7967C18.4746 19.5149 19.5149 18.4746 20.7967 18.4746H32.0754C33.3572 18.4746 34.3975 19.5149 34.3975 20.7967V37.383C34.3975 37.4958 34.3895 37.6059 34.3736 37.7147H37.383C37.471 37.7147 37.5554 37.6798 37.6176 37.6176C37.6798 37.5554 37.7147 37.471 37.7147 37.383V29.468C37.7148 29.4134 37.7013 29.3597 37.6757 29.3116C37.65 29.2634 37.6128 29.2224 37.5674 29.192L36.1676 28.2592C36.0572 28.1874 35.9623 28.0944 35.8882 27.9857C35.814 27.877 35.7622 27.7546 35.7357 27.6257C35.7092 27.4968 35.7085 27.3639 35.7337 27.2347C35.7588 27.1055 35.8094 26.9826 35.8824 26.8731C35.9554 26.7636 36.0494 26.6697 36.159 26.5967C36.2685 26.5238 36.3914 26.4733 36.5206 26.4482C36.6498 26.4231 36.7827 26.4239 36.9116 26.4505C37.0405 26.4771 37.1628 26.529 37.2715 26.6032L38.6714 27.536C39.3176 27.9673 39.7051 28.6918 39.7051 29.468V37.383C39.7051 37.9989 39.4604 38.5895 39.025 39.025C38.5895 39.4604 37.9989 39.7051 37.383 39.7051H32.7388C32.6506 39.7052 32.5626 39.6936 32.4774 39.6706C32.3461 39.6931 32.212 39.7051 32.0754 39.7051H28.0947C27.8307 39.7051 27.5776 39.6002 27.391 39.4136C27.2043 39.227 27.0995 38.9738 27.0995 38.7099V37.0513H25.7726V38.7099C25.7726 38.9738 25.6677 39.227 25.4811 39.4136C25.2945 39.6002 25.0413 39.7051 24.7774 39.7051H20.7967ZM22.4553 23.4505C22.4553 23.1866 22.5602 22.9334 22.7468 22.7468C22.9334 22.5602 23.1866 22.4553 23.4505 22.4553H24.114C24.3779 22.4553 24.631 22.5602 24.8177 22.7468C25.0043 22.9334 25.1091 23.1866 25.1091 23.4505C25.1091 23.7144 25.0043 23.9676 24.8177 24.1542C24.631 24.3408 24.3779 24.4457 24.114 24.4457H23.4505C23.1866 24.4457 22.9334 24.3408 22.7468 24.1542C22.5602 23.9676 22.4553 23.7144 22.4553 23.4505V23.4505ZM23.4505 26.436C23.1866 26.436 22.9334 26.5409 22.7468 26.7275C22.5602 26.9141 22.4553 27.1673 22.4553 27.4312C22.4553 27.6952 22.5602 27.9483 22.7468 28.1349C22.9334 28.3215 23.1866 28.4264 23.4505 28.4264H24.114C24.3779 28.4264 24.631 28.3215 24.8177 28.1349C25.0043 27.9483 25.1091 27.6952 25.1091 27.4312C25.1091 27.1673 25.0043 26.9141 24.8177 26.7275C24.631 26.5409 24.3779 26.436 24.114 26.436H23.4505ZM22.4553 31.4119C22.4553 31.148 22.5602 30.8949 22.7468 30.7082C22.9334 30.5216 23.1866 30.4167 23.4505 30.4167H24.114C24.3779 30.4167 24.631 30.5216 24.8177 30.7082C25.0043 30.8949 25.1091 31.148 25.1091 31.4119C25.1091 31.6759 25.0043 31.929 24.8177 32.1156C24.631 32.3023 24.3779 32.4071 24.114 32.4071H23.4505C23.1866 32.4071 22.9334 32.3023 22.7468 32.1156C22.5602 31.929 22.4553 31.6759 22.4553 31.4119ZM28.7581 30.4167C28.4942 30.4167 28.2411 30.5216 28.0544 30.7082C27.8678 30.8949 27.7629 31.148 27.7629 31.4119C27.7629 31.6759 27.8678 31.929 28.0544 32.1156C28.2411 32.3023 28.4942 32.4071 28.7581 32.4071H29.4216C29.6855 32.4071 29.9386 32.3023 30.1253 32.1156C30.3119 31.929 30.4167 31.6759 30.4167 31.4119C30.4167 31.148 30.3119 30.8949 30.1253 30.7082C29.9386 30.5216 29.6855 30.4167 29.4216 30.4167H28.7581ZM27.7629 27.4312C27.7629 27.1673 27.8678 26.9141 28.0544 26.7275C28.2411 26.5409 28.4942 26.436 28.7581 26.436H29.4216C29.6855 26.436 29.9386 26.5409 30.1253 26.7275C30.3119 26.9141 30.4167 27.1673 30.4167 27.4312C30.4167 27.6952 30.3119 27.9483 30.1253 28.1349C29.9386 28.3215 29.6855 28.4264 29.4216 28.4264H28.7581C28.4942 28.4264 28.2411 28.3215 28.0544 28.1349C27.8678 27.9483 27.7629 27.6952 27.7629 27.4312ZM28.7581 22.4553C28.4942 22.4553 28.2411 22.5602 28.0544 22.7468C27.8678 22.9334 27.7629 23.1866 27.7629 23.4505C27.7629 23.7144 27.8678 23.9676 28.0544 24.1542C28.2411 24.3408 28.4942 24.4457 28.7581 24.4457H29.4216C29.6855 24.4457 29.9386 24.3408 30.1253 24.1542C30.3119 23.9676 30.4167 23.7144 30.4167 23.4505C30.4167 23.1866 30.3119 22.9334 30.1253 22.7468C29.9386 22.5602 29.6855 22.4553 29.4216 22.4553H28.7581Z" fill="#2AAA0B"/>
</g>
<rect x="1.08984" y="1.08984" width="56" height="56" rx="28" stroke="#2AAA0B"/>
<defs>
<clipPath id="clip0_2694_2845">
<rect width="21.2305" height="21.2305" fill="white" transform="translate(18.4746 18.4746)"/>
</clipPath>
</defs>
</svg>
