<svg width="57" height="57" viewBox="0 0 57 57" fill="none" xmlns="http://www.w3.org/2000/svg">
<rect x="0.5" y="0.5" width="56" height="56" rx="28" fill="#EAFCEC"/>
<path d="M35.2078 27.1584C35.5636 27.1584 35.9048 27.0171 36.1564 26.7655C36.408 26.5139 36.5493 26.1727 36.5493 25.8169V21.7922C36.5493 21.4364 36.408 21.0952 36.1564 20.8436C35.9048 20.592 35.5636 20.4507 35.2078 20.4507H31.1831C30.8273 20.4507 30.4861 20.592 30.2345 20.8436C29.9829 21.0952 29.8416 21.4364 29.8416 21.7922V25.8169C29.8416 26.1727 29.9829 26.5139 30.2345 26.7655C30.4861 27.0171 30.8273 27.1584 31.1831 27.1584H32.5247V29.9086C31.8801 30.0401 31.2885 30.3582 30.8233 30.8233C30.3582 31.2885 30.0401 31.8801 29.9086 32.5247H27.1585V31.1831C27.1585 30.8273 27.0171 30.4861 26.7655 30.2345C26.5139 29.9829 26.1727 29.8416 25.8169 29.8416H24.4753V27.0914C25.2897 26.9251 26.0133 26.4625 26.5059 25.793C26.9985 25.1236 27.225 24.2951 27.1415 23.4682C27.0579 22.6412 26.6703 21.8748 26.0538 21.3174C25.4373 20.76 24.6357 20.4514 23.8046 20.4514C22.9734 20.4514 22.1719 20.76 21.5554 21.3174C20.9388 21.8748 20.5512 22.6412 20.4677 23.4682C20.3841 24.2951 20.6106 25.1236 21.1032 25.793C21.5958 26.4625 22.3194 26.9251 23.1338 27.0914V29.8416H21.7922C21.4364 29.8416 21.0952 29.9829 20.8436 30.2345C20.592 30.4861 20.4507 30.8273 20.4507 31.1831V35.2078C20.4507 35.5636 20.592 35.9048 20.8436 36.1564C21.0952 36.408 21.4364 36.5493 21.7922 36.5493H25.8169C26.1727 36.5493 26.5139 36.408 26.7655 36.1564C27.0171 35.9048 27.1585 35.5636 27.1585 35.2078V33.8662H29.9086C30.03 34.4598 30.3098 35.0094 30.7184 35.4567C31.1271 35.904 31.6492 36.2323 32.2295 36.4066C32.8097 36.5809 33.4263 36.5949 34.0138 36.4469C34.6013 36.2989 35.1377 35.9945 35.5661 35.5661C35.9945 35.1377 36.2989 34.6013 36.4469 34.0138C36.5949 33.4263 36.5809 32.8097 36.4066 32.2295C36.2323 31.6492 35.904 31.1271 35.4567 30.7184C35.0094 30.3098 34.4598 30.03 33.8662 29.9086V27.1584H35.2078ZM21.7922 23.8046C21.7922 23.4066 21.9103 23.0175 22.1314 22.6866C22.3525 22.3556 22.6668 22.0977 23.0345 21.9454C23.4022 21.7931 23.8068 21.7533 24.1972 21.8309C24.5875 21.9085 24.9461 22.1002 25.2275 22.3816C25.5089 22.6631 25.7006 23.0216 25.7782 23.412C25.8559 23.8023 25.816 24.2069 25.6637 24.5747C25.5114 24.9424 25.2535 25.2566 24.9226 25.4778C24.5916 25.6989 24.2026 25.8169 23.8046 25.8169C23.2709 25.8169 22.759 25.6049 22.3816 25.2275C22.0043 24.8501 21.7922 24.3383 21.7922 23.8046ZM25.8169 35.2078H21.7922V31.1831H25.8169V35.2078ZM35.2078 33.1954C35.2078 33.5934 35.0898 33.9825 34.8686 34.3134C34.6475 34.6444 34.3332 34.9023 33.9655 35.0546C33.5978 35.2069 33.1932 35.2467 32.8029 35.1691C32.4125 35.0915 32.0539 34.8998 31.7725 34.6184C31.4911 34.3369 31.2994 33.9784 31.2218 33.588C31.1441 33.1977 31.184 32.7931 31.3363 32.4253C31.4886 32.0576 31.7465 31.7434 32.0775 31.5222C32.4084 31.3011 32.7974 31.1831 33.1954 31.1831C33.7291 31.1831 34.241 31.3951 34.6184 31.7725C34.9958 32.1499 35.2078 32.6617 35.2078 33.1954ZM31.1831 21.7922H35.2078V25.8169H31.1831V21.7922Z" fill="#2AAA0B"/>
<rect x="0.5" y="0.5" width="56" height="56" rx="28" stroke="#2AAA0B"/>
</svg>
