<svg width="24" height="24" viewBox="0 0 24 24" fill="none" xmlns="http://www.w3.org/2000/svg">
<path fill-rule="evenodd" clip-rule="evenodd" d="M12.1067 3.53247C11.1714 3.53247 10.4132 4.29067 10.4132 5.22596V10.3064H5.33216C4.39687 10.3064 3.63867 11.0646 3.63867 11.9998C3.63867 12.9351 4.39687 13.6933 5.33216 13.6933H10.4132V18.7739C10.4132 19.7091 11.1714 20.4673 12.1067 20.4673C13.042 20.4673 13.8002 19.7091 13.8002 18.7739V13.6933H18.8801C19.8154 13.6933 20.5736 12.9351 20.5736 11.9998C20.5736 11.0646 19.8154 10.3064 18.8801 10.3064H13.8002V5.22596C13.8002 4.29067 13.042 3.53247 12.1067 3.53247Z" fill="black"/>
<mask id="mask0_2991_3681" style="mask-type:alpha" maskUnits="userSpaceOnUse" x="3" y="3" width="18" height="18">
<path fill-rule="evenodd" clip-rule="evenodd" d="M12.096 3.53247C11.1607 3.53247 10.4025 4.29067 10.4025 5.22596V10.3064H5.32142C4.38613 10.3064 3.62793 11.0646 3.62793 11.9998C3.62793 12.9351 4.38613 13.6933 5.32142 13.6933H10.4025V18.7739C10.4025 19.7091 11.1607 20.4673 12.096 20.4673C13.0312 20.4673 13.7894 19.7091 13.7894 18.7739V13.6933H18.8693C19.8046 13.6933 20.5628 12.9351 20.5628 11.9998C20.5628 11.0646 19.8046 10.3064 18.8693 10.3064H13.7894V5.22596C13.7894 4.29067 13.0312 3.53247 12.096 3.53247Z" fill="#C4C4C4"/>
</mask>
<g mask="url(#mask0_2991_3681)">
<rect x="0.453125" y="0.357178" width="23.2855" height="23.2855" fill="white"/>
</g>
</svg>
