<svg width="48" height="49" viewBox="0 0 48 49" fill="none" xmlns="http://www.w3.org/2000/svg">
<circle cx="24" cy="24.812" r="24" fill="#2AAA0B"/>
<path d="M22.6667 15C21.6029 15 20.75 15.8529 20.75 16.9167V19.7917C20.75 20.8554 21.6029 21.7083 22.6667 21.7083H23.625V23.625H15V25.5417H18.8333V27.4583H17.875C16.8112 27.4583 15.9583 28.3112 15.9583 29.375V32.25C15.9583 33.3137 16.8112 34.1667 17.875 34.1667H21.7083C22.7721 34.1667 23.625 33.3137 23.625 32.25V29.375C23.625 28.3112 22.7721 27.4583 21.7083 27.4583H20.75V25.5417H28.4167V27.4583H27.4583C26.3946 27.4583 25.5417 28.3112 25.5417 29.375V32.25C25.5417 33.3137 26.3946 34.1667 27.4583 34.1667H31.2917C32.3554 34.1667 33.2083 33.3137 33.2083 32.25V29.375C33.2083 28.3112 32.3554 27.4583 31.2917 27.4583H30.3333V25.5417H34.1667V23.625H25.5417V21.7083H26.5C27.5637 21.7083 28.4167 20.8554 28.4167 19.7917V16.9167C28.4167 15.8529 27.5637 15 26.5 15H22.6667ZM22.6667 16.9167H26.5V19.7917H22.6667V16.9167ZM17.875 29.375H21.7083V32.25H17.875V29.375ZM27.4583 29.375H31.2917V32.25H27.4583V29.375Z" fill="white"/>
</svg>
