<svg width="57" height="57" viewBox="0 0 57 57" fill="none" xmlns="http://www.w3.org/2000/svg">
<rect x="0.5" y="0.5" width="56" height="56" rx="28" fill="#EAFCEC"/>
<g clip-path="url(#clip0_2791_3378)">
<path d="M28.5 30.875C28.0303 30.875 27.5711 30.7357 27.1805 30.4747C26.79 30.2138 26.4855 29.8428 26.3058 29.4089C26.126 28.9749 26.079 28.4974 26.1706 28.0367C26.2623 27.576 26.4885 27.1528 26.8206 26.8206C27.1528 26.4885 27.576 26.2623 28.0367 26.1706C28.4974 26.079 28.9749 26.126 29.4089 26.3058C29.8428 26.4855 30.2138 26.79 30.4747 27.1805C30.7357 27.5711 30.875 28.0303 30.875 28.5C30.8742 29.1296 30.6237 29.7333 30.1785 30.1785C29.7333 30.6237 29.1296 30.8742 28.5 30.875V30.875ZM28.5 27.3125C28.2651 27.3125 28.0355 27.3821 27.8403 27.5126C27.645 27.6431 27.4928 27.8286 27.4029 28.0456C27.313 28.2626 27.2895 28.5013 27.3353 28.7317C27.3811 28.962 27.4942 29.1736 27.6603 29.3397C27.8264 29.5058 28.038 29.6189 28.2683 29.6647C28.4987 29.7105 28.7375 29.687 28.9544 29.5971C29.1714 29.5072 29.3569 29.355 29.4874 29.1597C29.6179 28.9645 29.6875 28.7349 29.6875 28.5C29.6872 28.1852 29.562 27.8833 29.3393 27.6607C29.1167 27.438 28.8148 27.3128 28.5 27.3125ZM21.9688 30.875C21.499 30.875 21.0398 30.7357 20.6493 30.4747C20.2587 30.2138 19.9543 29.8428 19.7745 29.4089C19.5948 28.9749 19.5477 28.4974 19.6394 28.0367C19.731 27.576 19.9572 27.1528 20.2894 26.8206C20.6215 26.4885 21.0447 26.2623 21.5054 26.1706C21.9661 26.079 22.4436 26.126 22.8776 26.3058C23.3116 26.4855 23.6825 26.79 23.9435 27.1805C24.2045 27.5711 24.3438 28.0303 24.3438 28.5C24.343 29.1296 24.0925 29.7333 23.6473 30.1785C23.202 30.6237 22.5984 30.8742 21.9688 30.875V30.875ZM21.9688 27.3125C21.7339 27.3125 21.5043 27.3821 21.309 27.5126C21.1137 27.6431 20.9615 27.8286 20.8716 28.0456C20.7818 28.2626 20.7582 28.5013 20.8041 28.7317C20.8499 28.962 20.963 29.1736 21.1291 29.3397C21.2951 29.5058 21.5067 29.6189 21.7371 29.6647C21.9674 29.7105 22.2062 29.687 22.4232 29.5971C22.6402 29.5072 22.8256 29.355 22.9561 29.1597C23.0866 28.9645 23.1563 28.7349 23.1563 28.5C23.1559 28.1852 23.0307 27.8833 22.8081 27.6607C22.5855 27.438 22.2836 27.3128 21.9688 27.3125V27.3125ZM24.9375 37.4063C24.4678 37.4063 24.0086 37.267 23.618 37.006C23.2275 36.745 22.923 36.3741 22.7433 35.9401C22.5635 35.5061 22.5165 35.0286 22.6081 34.5679C22.6998 34.1072 22.926 33.684 23.2581 33.3519C23.5903 33.0197 24.0135 32.7935 24.4742 32.7019C24.9349 32.6102 25.4124 32.6573 25.8464 32.837C26.2803 33.0168 26.6513 33.3212 26.9122 33.7118C27.1732 34.1023 27.3125 34.5615 27.3125 35.0313C27.3117 35.6609 27.0612 36.2645 26.616 36.7098C26.1708 37.155 25.5671 37.4055 24.9375 37.4063V37.4063ZM24.9375 33.8438C24.7026 33.8438 24.473 33.9134 24.2778 34.0439C24.0825 34.1744 23.9303 34.3598 23.8404 34.5768C23.7505 34.7938 23.727 35.0326 23.7728 35.2629C23.8186 35.4933 23.9317 35.7049 24.0978 35.8709C24.2639 36.037 24.4755 36.1501 24.7058 36.1959C24.9362 36.2418 25.175 36.2182 25.3919 36.1284C25.6089 36.0385 25.7944 35.8863 25.9249 35.691C26.0554 35.4957 26.125 35.2661 26.125 35.0313C26.1247 34.7164 25.9995 34.4145 25.7768 34.1919C25.5542 33.9693 25.2523 33.8441 24.9375 33.8438ZM32.0625 37.4063C31.5928 37.4063 31.1336 37.267 30.743 37.006C30.3525 36.745 30.048 36.3741 29.8683 35.9401C29.6885 35.5061 29.6415 35.0286 29.7331 34.5679C29.8248 34.1072 30.051 33.684 30.3831 33.3519C30.7153 33.0197 31.1385 32.7935 31.5992 32.7019C32.0599 32.6102 32.5374 32.6573 32.9714 32.837C33.4053 33.0168 33.7763 33.3212 34.0372 33.7118C34.2982 34.1023 34.4375 34.5615 34.4375 35.0313C34.4367 35.6609 34.1862 36.2645 33.741 36.7098C33.2958 37.155 32.6921 37.4055 32.0625 37.4063ZM32.0625 33.8438C31.8276 33.8438 31.598 33.9134 31.4028 34.0439C31.2075 34.1744 31.0553 34.3598 30.9654 34.5768C30.8755 34.7938 30.852 35.0326 30.8978 35.2629C30.9436 35.4933 31.0567 35.7049 31.2228 35.8709C31.3889 36.037 31.6005 36.1501 31.8308 36.1959C32.0612 36.2418 32.3 36.2182 32.5169 36.1284C32.7339 36.0385 32.9194 35.8863 33.0499 35.691C33.1804 35.4957 33.25 35.2661 33.25 35.0313C33.2497 34.7164 33.1245 34.4145 32.9018 34.1919C32.6792 33.9693 32.3773 33.8441 32.0625 33.8438ZM35.0313 30.875C34.5615 30.875 34.1023 30.7357 33.7118 30.4747C33.3212 30.2138 33.0168 29.8428 32.837 29.4089C32.6573 28.9749 32.6102 28.4974 32.7019 28.0367C32.7935 27.576 33.0197 27.1528 33.3519 26.8206C33.684 26.4885 34.1072 26.2623 34.5679 26.1706C35.0286 26.079 35.5061 26.126 35.9401 26.3058C36.3741 26.4855 36.745 26.79 37.006 27.1805C37.267 27.5711 37.4063 28.0303 37.4063 28.5C37.4055 29.1296 37.155 29.7333 36.7098 30.1785C36.2645 30.6237 35.6609 30.8742 35.0313 30.875V30.875ZM35.0313 27.3125C34.7964 27.3125 34.5668 27.3821 34.3715 27.5126C34.1762 27.6431 34.024 27.8286 33.9341 28.0456C33.8443 28.2626 33.8207 28.5013 33.8666 28.7317C33.9124 28.962 34.0255 29.1736 34.1916 29.3397C34.3576 29.5058 34.5692 29.6189 34.7996 29.6647C35.0299 29.7105 35.2687 29.687 35.4857 29.5971C35.7027 29.5072 35.8881 29.355 36.0186 29.1597C36.1491 28.9645 36.2188 28.7349 36.2188 28.5C36.2184 28.1852 36.0932 27.8833 35.8706 27.6607C35.648 27.438 35.3461 27.3128 35.0313 27.3125ZM32.0625 24.3438C31.5928 24.3438 31.1336 24.2045 30.743 23.9435C30.3525 23.6825 30.048 23.3116 29.8683 22.8776C29.6885 22.4436 29.6415 21.9661 29.7331 21.5054C29.8248 21.0447 30.051 20.6215 30.3831 20.2894C30.7153 19.9572 31.1385 19.731 31.5992 19.6394C32.0599 19.5477 32.5374 19.5948 32.9714 19.7745C33.4053 19.9543 33.7763 20.2587 34.0372 20.6493C34.2982 21.0398 34.4375 21.499 34.4375 21.9688C34.4367 22.5984 34.1862 23.202 33.741 23.6473C33.2958 24.0925 32.6921 24.343 32.0625 24.3438V24.3438ZM32.0625 20.7813C31.8276 20.7813 31.598 20.8509 31.4028 20.9814C31.2075 21.1119 31.0553 21.2973 30.9654 21.5143C30.8755 21.7313 30.852 21.9701 30.8978 22.2004C30.9436 22.4308 31.0567 22.6424 31.2228 22.8084C31.3889 22.9745 31.6005 23.0876 31.8308 23.1334C32.0612 23.1793 32.3 23.1557 32.5169 23.0659C32.7339 22.976 32.9194 22.8238 33.0499 22.6285C33.1804 22.4332 33.25 22.2036 33.25 21.9688C33.2497 21.6539 33.1245 21.352 32.9018 21.1294C32.6792 20.9068 32.3773 20.7816 32.0625 20.7813V20.7813ZM24.9375 24.3438C24.4678 24.3438 24.0086 24.2045 23.618 23.9435C23.2275 23.6825 22.923 23.3116 22.7433 22.8776C22.5635 22.4436 22.5165 21.9661 22.6081 21.5054C22.6998 21.0447 22.926 20.6215 23.2581 20.2894C23.5903 19.9572 24.0135 19.731 24.4742 19.6394C24.9349 19.5477 25.4124 19.5948 25.8464 19.7745C26.2803 19.9543 26.6513 20.2587 26.9122 20.6493C27.1732 21.0398 27.3125 21.499 27.3125 21.9688C27.3117 22.5984 27.0612 23.202 26.616 23.6473C26.1708 24.0925 25.5671 24.343 24.9375 24.3438V24.3438ZM24.9375 20.7813C24.7026 20.7813 24.473 20.8509 24.2778 20.9814C24.0825 21.1119 23.9303 21.2973 23.8404 21.5143C23.7505 21.7313 23.727 21.9701 23.7728 22.2004C23.8186 22.4308 23.9317 22.6424 24.0978 22.8084C24.2639 22.9745 24.4755 23.0876 24.7058 23.1334C24.9362 23.1793 25.175 23.1557 25.3919 23.0659C25.6089 22.976 25.7944 22.8238 25.9249 22.6285C26.0554 22.4332 26.125 22.2036 26.125 21.9688C26.1247 21.6539 25.9995 21.352 25.7768 21.1294C25.5542 20.9068 25.2523 20.7816 24.9375 20.7813V20.7813Z" fill="#2AAA0B"/>
</g>
<rect x="0.5" y="0.5" width="56" height="56" rx="28" stroke="#2AAA0B"/>
<defs>
<clipPath id="clip0_2791_3378">
<rect width="19" height="19" fill="white" transform="translate(19 19)"/>
</clipPath>
</defs>
</svg>
