<svg width="48" height="49" viewBox="0 0 48 49" fill="none" xmlns="http://www.w3.org/2000/svg">
<circle cx="24" cy="24.812" r="24" fill="#2AAA0B"/>
<path d="M30.9392 23.3909C31.295 23.3909 31.6362 23.2495 31.8878 22.9979C32.1394 22.7463 32.2808 22.4051 32.2808 22.0493V18.0247C32.2808 17.6689 32.1394 17.3276 31.8878 17.076C31.6362 16.8244 31.295 16.6831 30.9392 16.6831H26.9146C26.5588 16.6831 26.2175 16.8244 25.9659 17.076C25.7143 17.3276 25.573 17.6689 25.573 18.0247V22.0493C25.573 22.4051 25.7143 22.7463 25.9659 22.9979C26.2175 23.2495 26.5588 23.3909 26.9146 23.3909H28.2561V26.1411C27.6116 26.2725 27.0199 26.5906 26.5548 27.0557C26.0896 27.5209 25.7715 28.1125 25.6401 28.7571H22.8899V27.4155C22.8899 27.0597 22.7486 26.7185 22.497 26.4669C22.2454 26.2153 21.9041 26.074 21.5483 26.074H20.2068V23.3238C21.0211 23.1576 21.7448 22.6949 22.2374 22.0254C22.73 21.356 22.9565 20.5275 22.8729 19.7006C22.7894 18.8736 22.4018 18.1072 21.7852 17.5498C21.1687 16.9924 20.3672 16.6838 19.536 16.6838C18.7049 16.6838 17.9033 16.9924 17.2868 17.5498C16.6703 18.1072 16.2827 18.8736 16.1991 19.7006C16.1156 20.5275 16.3421 21.356 16.8347 22.0254C17.3273 22.6949 18.0509 23.1576 18.8652 23.3238V26.074H17.5237C17.1679 26.074 16.8267 26.2153 16.5751 26.4669C16.3235 26.7185 16.1821 27.0597 16.1821 27.4155V31.4402C16.1821 31.796 16.3235 32.1372 16.5751 32.3888C16.8267 32.6404 17.1679 32.7817 17.5237 32.7817H21.5483C21.9041 32.7817 22.2454 32.6404 22.497 32.3888C22.7486 32.1372 22.8899 31.796 22.8899 31.4402V30.0986H25.6401C25.7614 30.6922 26.0413 31.2418 26.4499 31.6891C26.8585 32.1364 27.3807 32.4647 27.9609 32.639C28.5411 32.8134 29.1577 32.8273 29.7452 32.6793C30.3327 32.5313 30.8692 32.2269 31.2976 31.7985C31.726 31.3701 32.0303 30.8337 32.1783 30.2462C32.3263 29.6587 32.3124 29.0421 32.138 28.4619C31.9637 27.8817 31.6355 27.3595 31.1882 26.9509C30.7409 26.5422 30.1912 26.2624 29.5977 26.1411V23.3909H30.9392ZM17.5237 20.037C17.5237 19.639 17.6417 19.2499 17.8628 18.919C18.0839 18.5881 18.3982 18.3301 18.7659 18.1778C19.1336 18.0255 19.5383 17.9857 19.9286 18.0633C20.319 18.141 20.6775 18.3326 20.959 18.6141C21.2404 18.8955 21.432 19.254 21.5097 19.6444C21.5873 20.0348 21.5475 20.4394 21.3952 20.8071C21.2429 21.1748 20.9849 21.4891 20.654 21.7102C20.3231 21.9313 19.934 22.0493 19.536 22.0493C19.0023 22.0493 18.4905 21.8373 18.1131 21.4599C17.7357 21.0825 17.5237 20.5707 17.5237 20.037ZM21.5483 31.4402H17.5237V27.4155H21.5483V31.4402ZM30.9392 29.4279C30.9392 29.8259 30.8212 30.2149 30.6001 30.5458C30.379 30.8768 30.0647 31.1347 29.697 31.287C29.3293 31.4393 28.9247 31.4792 28.5343 31.4015C28.1439 31.3239 27.7854 31.1322 27.504 30.8508C27.2225 30.5694 27.0309 30.2108 26.9532 29.8204C26.8756 29.4301 26.9154 29.0255 27.0677 28.6578C27.22 28.2901 27.478 27.9758 27.8089 27.7547C28.1398 27.5335 28.5289 27.4155 28.9269 27.4155C29.4606 27.4155 29.9724 27.6275 30.3498 28.0049C30.7272 28.3823 30.9392 28.8942 30.9392 29.4279ZM26.9146 18.0247H30.9392V22.0493H26.9146V18.0247Z" fill="white"/>
</svg>
