<svg width="57" height="57" viewBox="0 0 57 57" fill="none" xmlns="http://www.w3.org/2000/svg">
<rect x="0.5" y="0.5" width="56" height="56" rx="28" fill="#EAFCEC"/>
<path fill-rule="evenodd" clip-rule="evenodd" d="M23.9998 21.25C23.9998 21.031 26.2578 19.5 28.4998 19.5C30.7418 19.5 32.9998 21.0315 32.9998 21.25C32.9998 22.03 32.9168 22.492 32.8468 22.7435C32.8003 22.9085 32.6458 23 32.4743 23H24.5253C24.3538 23 24.1993 22.9085 24.1528 22.7435C24.0828 22.492 23.9998 22.03 23.9998 21.25ZM27.7498 21C27.6172 21 27.49 21.0527 27.3962 21.1464C27.3025 21.2402 27.2498 21.3674 27.2498 21.5C27.2498 21.6326 27.3025 21.7598 27.3962 21.8536C27.49 21.9473 27.6172 22 27.7498 22H29.2498C29.3824 22 29.5096 21.9473 29.6033 21.8536C29.6971 21.7598 29.7498 21.6326 29.7498 21.5C29.7498 21.3674 29.6971 21.2402 29.6033 21.1464C29.5096 21.0527 29.3824 21 29.2498 21H27.7498ZM24.5188 26.109C22.8538 25.594 23.2738 24.674 23.9088 24H33.2298C33.7378 24.649 34.0103 25.5245 32.4748 26.0485C32.5375 26.6055 32.4825 27.1695 32.3133 27.7039C32.1441 28.2383 31.8645 28.7311 31.4925 29.1505C31.1206 29.5698 30.6647 29.9064 30.1543 30.1382C29.644 30.37 29.0906 30.492 28.5301 30.4962C27.9696 30.5005 27.4144 30.3868 26.9006 30.1627C26.3869 29.9386 25.9259 29.609 25.5477 29.1953C25.1695 28.7816 24.8824 28.293 24.7052 27.7613C24.5279 27.2295 24.4644 26.6664 24.5188 26.1085V26.109ZM28.3638 26.5C29.6848 26.5 30.7088 26.43 31.4938 26.308C31.5196 26.7157 31.4619 27.1243 31.3242 27.5089C31.1865 27.8934 30.9717 28.2458 30.693 28.5444C30.4143 28.8431 30.0775 29.0816 29.7034 29.2455C29.3292 29.4094 28.9255 29.4951 28.517 29.4975C28.1086 29.4998 27.7039 29.4187 27.3279 29.2592C26.9519 29.0996 26.6124 28.865 26.3303 28.5696C26.0482 28.2742 25.8293 27.9243 25.6872 27.5413C25.5451 27.1584 25.4827 26.7504 25.5038 26.3425C26.2353 26.4435 27.1728 26.5 28.3638 26.5V26.5ZM32.7083 33.8C32.256 33.0944 31.6335 32.5139 30.8981 32.112C30.1626 31.7101 29.3379 31.4996 28.4998 31.5C27.6613 31.4995 26.8362 31.7099 26.1005 32.1121C25.3648 32.5142 24.7421 33.095 24.2898 33.801C24.1219 33.5425 23.8641 33.3554 23.5663 33.276L22.6003 33.0175C22.2801 32.9317 21.9389 32.9765 21.6518 33.1422C21.3647 33.3079 21.1552 33.5808 21.0693 33.901L20.6813 35.35C20.6388 35.5086 20.6279 35.674 20.6494 35.8367C20.6708 35.9995 20.7241 36.1564 20.8062 36.2986C20.8883 36.4408 20.9975 36.5654 21.1278 36.6653C21.258 36.7652 21.4067 36.8385 21.5653 36.881L22.5308 37.14C22.6932 37.1837 22.8628 37.1942 23.0293 37.1706C23.1958 37.1471 23.3559 37.0901 23.4998 37.003C23.5002 37.1356 23.5532 37.2626 23.6473 37.3561C23.7413 37.4496 23.8687 37.5019 24.0013 37.5015C24.1339 37.5011 24.2609 37.448 24.3544 37.354C24.4479 37.2599 24.5002 37.1326 24.4998 37V36.5C24.4998 36.3095 24.5133 36.122 24.5388 35.9385L27.1408 36.636C27.2616 36.8945 27.4536 37.1132 27.6943 37.2665C27.935 37.4197 28.2144 37.5011 28.4998 37.5011C28.7851 37.5011 29.0645 37.4197 29.3053 37.2665C29.546 37.1132 29.738 36.8945 29.8588 36.636L32.4608 35.9385C32.4863 36.122 32.4998 36.3095 32.4998 36.5V37C32.4991 37.1326 32.5512 37.26 32.6445 37.3543C32.7378 37.4485 32.8647 37.5018 32.9973 37.5025C33.1299 37.5032 33.2573 37.4511 33.3516 37.3578C33.4458 37.2645 33.4991 37.1376 33.4998 37.005C33.7798 37.173 34.1258 37.2315 34.4663 37.14L35.4323 36.8815C35.5909 36.839 35.7395 36.7657 35.8698 36.6658C36 36.5659 36.1093 36.4413 36.1914 36.2991C36.2735 36.1569 36.3268 36 36.3482 35.8372C36.3696 35.6745 36.3588 35.5091 36.3163 35.3505L35.9278 33.9015C35.8419 33.5813 35.6323 33.3084 35.3452 33.1427C35.0581 32.977 34.717 32.9322 34.3968 33.018L33.4308 33.2765C33.1336 33.3556 32.8763 33.5419 32.7083 33.7995V33.8ZM24.8013 34.9735C25.0714 34.3203 25.5096 33.7502 26.0714 33.3212C26.6331 32.8922 27.2985 32.6196 27.9998 32.531V34.5855C27.7757 34.665 27.5737 34.7965 27.4103 34.9692C27.2469 35.1419 27.1267 35.3509 27.0598 35.579L24.8013 34.974V34.9735ZM32.1983 34.9735C31.9281 34.3203 31.4899 33.7503 30.9281 33.3213C30.3664 32.8923 29.701 32.6196 28.9998 32.531V34.5855C29.4518 34.7455 29.8048 35.1155 29.9398 35.579L32.1983 34.974V34.9735ZM28.4998 36.5C28.6324 36.5 28.7596 36.4473 28.8533 36.3536C28.9471 36.2598 28.9998 36.1326 28.9998 36C28.9998 35.8674 28.9471 35.7402 28.8533 35.6464C28.7596 35.5527 28.6324 35.5 28.4998 35.5C28.3672 35.5 28.24 35.5527 28.1462 35.6464C28.0525 35.7402 27.9998 35.8674 27.9998 36C27.9998 36.1326 28.0525 36.2598 28.1462 36.3536C28.24 36.4473 28.3672 36.5 28.4998 36.5Z" fill="#2AAA0B"/>
<rect x="0.5" y="0.5" width="56" height="56" rx="28" stroke="#2AAA0B"/>
</svg>
