<svg width="49" height="49" viewBox="0 0 49 49" fill="none" xmlns="http://www.w3.org/2000/svg">
<circle cx="24.7964" cy="24.812" r="24" fill="#2AAA0B"/>
<path d="M35 27.1666C35 27.6666 34 27.9999 32.8333 28.1666C32.0833 26.7499 30.5833 25.6666 28.8333 24.9166C29 24.6666 29.1667 24.4999 29.3333 24.2499H30C32.5833 24.1666 35 25.7499 35 27.1666V27.1666ZM20.6667 24.1666H20C17.4167 24.1666 15 25.7499 15 27.1666C15 27.6666 16 27.9999 17.1667 28.1666C17.9167 26.7499 19.4167 25.6666 21.1667 24.9166L20.6667 24.1666V24.1666ZM25 24.9999C26.8333 24.9999 28.3333 23.4999 28.3333 21.6666C28.3333 19.8333 26.8333 18.3333 25 18.3333C23.1667 18.3333 21.6667 19.8333 21.6667 21.6666C21.6667 23.4999 23.1667 24.9999 25 24.9999ZM25 25.8333C21.5833 25.8333 18.3333 27.9999 18.3333 29.9999C18.3333 31.6666 25 31.6666 25 31.6666C25 31.6666 31.6667 31.6666 31.6667 29.9999C31.6667 27.9999 28.4167 25.8333 25 25.8333ZM29.75 23.3333H30C31.4167 23.3333 32.5 22.2499 32.5 20.8333C32.5 19.4166 31.4167 18.3333 30 18.3333C29.5833 18.3333 29.25 18.4166 28.9167 18.5833C29.5833 19.4166 30 20.4999 30 21.6666C30 22.2499 29.9167 22.8333 29.75 23.3333ZM20 23.3333H20.25C20.0833 22.8333 20 22.2499 20 21.6666C20 20.4999 20.4167 19.4166 21.0833 18.5833C20.75 18.4166 20.4167 18.3333 20 18.3333C18.5833 18.3333 17.5 19.4166 17.5 20.8333C17.5 22.2499 18.5833 23.3333 20 23.3333Z" fill="white"/>
</svg>
